<svg width="512" height="512" viewBox="0 0 512 512" fill="none" xmlns="http://www.w3.org/2000/svg">
<g clip-path="url(#clip0_2032_9)">
<g filter="url(#filter0_di_2032_9)">
<circle cx="256.5" cy="256.5" r="248.5" fill="#AA051B"/>
</g>
<g filter="url(#filter1_ddi_2032_9)">
<circle cx="256" cy="257" r="205" fill="#AA051B"/>
</g>
<g filter="url(#filter2_d_2032_9)">
<mask id="path-3-outside-1_2032_9" maskUnits="userSpaceOnUse" x="108" y="106" width="270" height="314" fill="black">
<rect fill="white" x="108" y="106" width="270" height="314"/>
<path d="M368.296 178.552C368.296 192.549 365.521 204.857 359.97 215.476C354.419 225.853 347.3 234.903 338.612 242.626C329.924 250.349 320.874 256.865 311.462 262.174C305.67 265.311 299.275 268.931 292.276 273.034C285.519 276.895 278.279 280.274 270.556 283.17C262.833 286.066 254.507 287.514 245.578 287.514C243.165 300.063 239.303 311.889 233.994 322.99C228.685 333.85 221.807 343.503 213.36 351.95C211.188 354.122 208.533 356.415 205.396 358.828C202.5 361 199.242 363.051 195.622 364.982C201.173 366.913 205.879 368.481 209.74 369.688C213.843 371.136 218.79 372.825 224.582 374.756C231.098 376.928 236.649 379.341 241.234 381.996C245.819 384.651 250.284 387.305 254.628 389.96C258.972 392.615 263.799 394.787 269.108 396.476C274.417 398.165 281.054 399.01 289.018 399.01C296.741 399.01 304.343 397.803 311.824 395.39C319.547 393.218 325.942 389.719 331.01 384.892C336.319 380.307 338.974 374.273 338.974 366.792C338.974 359.793 336.561 354.725 331.734 351.588C326.907 348.209 320.995 346.52 313.996 346.52C308.687 346.52 304.343 348.933 300.964 353.76C297.585 358.345 295.172 362.327 293.724 365.706C291.311 370.774 289.259 373.308 287.57 373.308C285.639 373.308 284.674 371.257 284.674 367.154C284.674 364.982 285.036 362.569 285.76 359.914C286.725 357.259 288.053 354.725 289.742 352.312C292.397 348.451 295.534 345.313 299.154 342.9C302.774 340.487 307.721 339.28 313.996 339.28C322.925 339.28 331.01 341.814 338.25 346.882C345.49 351.709 349.11 358.587 349.11 367.516C349.11 376.204 346.455 383.806 341.146 390.322C336.078 396.838 329.441 401.906 321.236 405.526C313.272 409.146 304.825 410.956 295.896 410.956C285.036 410.956 276.348 409.991 269.832 408.06C263.316 406.371 257.162 404.078 251.37 401.182C245.819 398.527 238.821 395.873 230.374 393.218C224.341 391.287 217.221 388.15 209.016 383.806C200.811 379.703 193.571 376.445 187.296 374.032C186.572 373.549 185.727 373.067 184.762 372.584C184.038 372.343 183.193 371.981 182.228 371.498C175.471 374.394 168.351 376.687 160.87 378.376C153.63 380.307 146.511 381.272 139.512 381.272C137.099 381.272 134.082 380.307 130.462 378.376C127.083 376.687 124.067 374.394 121.412 371.498C118.999 368.602 117.792 365.465 117.792 362.086C117.792 359.914 118.637 357.38 120.326 354.484C122.257 351.347 124.549 348.692 127.204 346.52C130.1 344.348 132.875 343.262 135.53 343.262C141.081 343.262 147.717 344.71 155.44 347.606C163.404 350.502 170.765 353.639 177.522 357.018C179.935 354.605 182.228 352.312 184.4 350.14C186.572 347.727 188.744 345.434 190.916 343.262C198.156 336.022 204.31 327.455 209.378 317.56C214.446 307.665 218.911 297.288 222.772 286.428C211.671 285.463 200.811 283.653 190.192 280.998C179.573 278.102 169.92 274.12 161.232 269.052C152.785 263.984 145.907 257.709 140.598 250.228C135.53 242.505 132.996 233.335 132.996 222.716C132.996 211.373 135.892 200.755 141.684 190.86C147.717 180.724 155.561 172.519 165.214 166.244C174.867 159.969 185.245 156.832 196.346 156.832C210.102 156.832 221.083 159.245 229.288 164.072C237.493 168.899 241.596 178.19 241.596 191.946C241.596 198.462 239.545 204.857 235.442 211.132C231.581 217.165 227.599 221.509 223.496 224.164C222.531 224.647 221.927 224.888 221.686 224.888C219.514 224.888 218.428 223.681 218.428 221.268C218.428 219.82 218.911 218.734 219.876 218.01C222.531 215.838 225.547 212.339 228.926 207.512C232.546 202.685 234.356 197.497 234.356 191.946C234.356 180.603 230.857 173.122 223.858 169.502C216.859 165.882 207.689 164.072 196.346 164.072C186.451 164.072 178.125 166.968 171.368 172.76C164.611 178.552 159.543 186.033 156.164 195.204C152.785 204.133 151.096 213.787 151.096 224.164C151.096 236.955 154.595 247.211 161.594 254.934C168.593 262.657 177.763 268.449 189.106 272.31C200.449 275.93 212.515 278.343 225.306 279.55C226.995 274.723 228.564 270.017 230.012 265.432C231.46 260.847 232.908 256.261 234.356 251.676C239.907 235.507 244.854 219.337 249.198 203.168C253.783 186.757 259.575 171.553 266.574 157.556C269.711 151.04 273.331 144.645 277.434 138.37C281.778 131.854 286.967 126.424 293 122.08C299.275 117.736 306.997 115.564 316.168 115.564C321.477 115.564 326.787 115.926 332.096 116.65C337.405 117.374 341.629 118.943 344.766 121.356C352.247 127.389 358.039 135.112 362.142 144.524C366.245 153.695 368.296 165.037 368.296 178.552ZM342.956 178.552C344.163 173.725 345.007 169.381 345.49 165.52C346.214 161.659 346.576 158.159 346.576 155.022C346.576 145.851 342.715 138.249 334.992 132.216C332.579 130.285 330.045 129.199 327.39 128.958C324.977 128.475 321.598 128.234 317.254 128.234C304.705 128.234 295.172 131.613 288.656 138.37C282.381 144.886 277.193 152.367 273.09 160.814C266.091 174.811 260.782 189.774 257.162 205.702C253.542 221.389 250.767 240.695 248.836 263.622C248.595 266.518 248.353 269.414 248.112 272.31C247.871 274.965 247.509 277.619 247.026 280.274C255.231 280.033 262.833 278.585 269.832 275.93C276.831 273.034 283.467 269.655 289.742 265.794C296.017 261.933 301.929 258.433 307.48 255.296C313.996 251.676 319.305 246.729 323.408 240.454C327.752 233.938 331.01 226.939 333.182 219.458C335.595 211.735 337.526 204.254 338.974 197.014C340.422 189.774 341.749 183.62 342.956 178.552ZM168.11 364.62C163.766 362.448 159.301 360.517 154.716 358.828C150.131 357.139 145.787 356.294 141.684 356.294C139.029 356.294 136.495 357.018 134.082 358.466C131.91 359.914 130.824 361.724 130.824 363.896C130.824 367.033 131.669 369.447 133.358 371.136C135.047 373.067 137.099 374.032 139.512 374.032C145.304 374.032 150.493 373.067 155.078 371.136C159.905 369.447 164.249 367.275 168.11 364.62Z"/>
</mask>
<path d="M368.296 178.552C368.296 192.549 365.521 204.857 359.97 215.476C354.419 225.853 347.3 234.903 338.612 242.626C329.924 250.349 320.874 256.865 311.462 262.174C305.67 265.311 299.275 268.931 292.276 273.034C285.519 276.895 278.279 280.274 270.556 283.17C262.833 286.066 254.507 287.514 245.578 287.514C243.165 300.063 239.303 311.889 233.994 322.99C228.685 333.85 221.807 343.503 213.36 351.95C211.188 354.122 208.533 356.415 205.396 358.828C202.5 361 199.242 363.051 195.622 364.982C201.173 366.913 205.879 368.481 209.74 369.688C213.843 371.136 218.79 372.825 224.582 374.756C231.098 376.928 236.649 379.341 241.234 381.996C245.819 384.651 250.284 387.305 254.628 389.96C258.972 392.615 263.799 394.787 269.108 396.476C274.417 398.165 281.054 399.01 289.018 399.01C296.741 399.01 304.343 397.803 311.824 395.39C319.547 393.218 325.942 389.719 331.01 384.892C336.319 380.307 338.974 374.273 338.974 366.792C338.974 359.793 336.561 354.725 331.734 351.588C326.907 348.209 320.995 346.52 313.996 346.52C308.687 346.52 304.343 348.933 300.964 353.76C297.585 358.345 295.172 362.327 293.724 365.706C291.311 370.774 289.259 373.308 287.57 373.308C285.639 373.308 284.674 371.257 284.674 367.154C284.674 364.982 285.036 362.569 285.76 359.914C286.725 357.259 288.053 354.725 289.742 352.312C292.397 348.451 295.534 345.313 299.154 342.9C302.774 340.487 307.721 339.28 313.996 339.28C322.925 339.28 331.01 341.814 338.25 346.882C345.49 351.709 349.11 358.587 349.11 367.516C349.11 376.204 346.455 383.806 341.146 390.322C336.078 396.838 329.441 401.906 321.236 405.526C313.272 409.146 304.825 410.956 295.896 410.956C285.036 410.956 276.348 409.991 269.832 408.06C263.316 406.371 257.162 404.078 251.37 401.182C245.819 398.527 238.821 395.873 230.374 393.218C224.341 391.287 217.221 388.15 209.016 383.806C200.811 379.703 193.571 376.445 187.296 374.032C186.572 373.549 185.727 373.067 184.762 372.584C184.038 372.343 183.193 371.981 182.228 371.498C175.471 374.394 168.351 376.687 160.87 378.376C153.63 380.307 146.511 381.272 139.512 381.272C137.099 381.272 134.082 380.307 130.462 378.376C127.083 376.687 124.067 374.394 121.412 371.498C118.999 368.602 117.792 365.465 117.792 362.086C117.792 359.914 118.637 357.38 120.326 354.484C122.257 351.347 124.549 348.692 127.204 346.52C130.1 344.348 132.875 343.262 135.53 343.262C141.081 343.262 147.717 344.71 155.44 347.606C163.404 350.502 170.765 353.639 177.522 357.018C179.935 354.605 182.228 352.312 184.4 350.14C186.572 347.727 188.744 345.434 190.916 343.262C198.156 336.022 204.31 327.455 209.378 317.56C214.446 307.665 218.911 297.288 222.772 286.428C211.671 285.463 200.811 283.653 190.192 280.998C179.573 278.102 169.92 274.12 161.232 269.052C152.785 263.984 145.907 257.709 140.598 250.228C135.53 242.505 132.996 233.335 132.996 222.716C132.996 211.373 135.892 200.755 141.684 190.86C147.717 180.724 155.561 172.519 165.214 166.244C174.867 159.969 185.245 156.832 196.346 156.832C210.102 156.832 221.083 159.245 229.288 164.072C237.493 168.899 241.596 178.19 241.596 191.946C241.596 198.462 239.545 204.857 235.442 211.132C231.581 217.165 227.599 221.509 223.496 224.164C222.531 224.647 221.927 224.888 221.686 224.888C219.514 224.888 218.428 223.681 218.428 221.268C218.428 219.82 218.911 218.734 219.876 218.01C222.531 215.838 225.547 212.339 228.926 207.512C232.546 202.685 234.356 197.497 234.356 191.946C234.356 180.603 230.857 173.122 223.858 169.502C216.859 165.882 207.689 164.072 196.346 164.072C186.451 164.072 178.125 166.968 171.368 172.76C164.611 178.552 159.543 186.033 156.164 195.204C152.785 204.133 151.096 213.787 151.096 224.164C151.096 236.955 154.595 247.211 161.594 254.934C168.593 262.657 177.763 268.449 189.106 272.31C200.449 275.93 212.515 278.343 225.306 279.55C226.995 274.723 228.564 270.017 230.012 265.432C231.46 260.847 232.908 256.261 234.356 251.676C239.907 235.507 244.854 219.337 249.198 203.168C253.783 186.757 259.575 171.553 266.574 157.556C269.711 151.04 273.331 144.645 277.434 138.37C281.778 131.854 286.967 126.424 293 122.08C299.275 117.736 306.997 115.564 316.168 115.564C321.477 115.564 326.787 115.926 332.096 116.65C337.405 117.374 341.629 118.943 344.766 121.356C352.247 127.389 358.039 135.112 362.142 144.524C366.245 153.695 368.296 165.037 368.296 178.552ZM342.956 178.552C344.163 173.725 345.007 169.381 345.49 165.52C346.214 161.659 346.576 158.159 346.576 155.022C346.576 145.851 342.715 138.249 334.992 132.216C332.579 130.285 330.045 129.199 327.39 128.958C324.977 128.475 321.598 128.234 317.254 128.234C304.705 128.234 295.172 131.613 288.656 138.37C282.381 144.886 277.193 152.367 273.09 160.814C266.091 174.811 260.782 189.774 257.162 205.702C253.542 221.389 250.767 240.695 248.836 263.622C248.595 266.518 248.353 269.414 248.112 272.31C247.871 274.965 247.509 277.619 247.026 280.274C255.231 280.033 262.833 278.585 269.832 275.93C276.831 273.034 283.467 269.655 289.742 265.794C296.017 261.933 301.929 258.433 307.48 255.296C313.996 251.676 319.305 246.729 323.408 240.454C327.752 233.938 331.01 226.939 333.182 219.458C335.595 211.735 337.526 204.254 338.974 197.014C340.422 189.774 341.749 183.62 342.956 178.552ZM168.11 364.62C163.766 362.448 159.301 360.517 154.716 358.828C150.131 357.139 145.787 356.294 141.684 356.294C139.029 356.294 136.495 357.018 134.082 358.466C131.91 359.914 130.824 361.724 130.824 363.896C130.824 367.033 131.669 369.447 133.358 371.136C135.047 373.067 137.099 374.032 139.512 374.032C145.304 374.032 150.493 373.067 155.078 371.136C159.905 369.447 164.249 367.275 168.11 364.62Z" fill="white" shape-rendering="crispEdges"/>
<path d="M359.97 215.476L367.906 219.721L367.926 219.683L367.946 219.645L359.97 215.476ZM311.462 262.174L315.749 270.088L315.817 270.051L315.884 270.013L311.462 262.174ZM292.276 273.034L296.741 280.848L296.785 280.823L296.827 280.798L292.276 273.034ZM270.556 283.17L273.716 291.597L273.716 291.597L270.556 283.17ZM245.578 287.514V278.514H238.144L236.74 285.814L245.578 287.514ZM233.994 322.99L242.079 326.943L242.096 326.908L242.113 326.873L233.994 322.99ZM213.36 351.95L206.996 345.586L206.996 345.586L213.36 351.95ZM205.396 358.828L210.796 366.028L210.84 365.995L210.883 365.962L205.396 358.828ZM195.622 364.982L191.387 357.041L173.232 366.723L192.665 373.482L195.622 364.982ZM209.74 369.688L212.735 361.201L212.581 361.147L212.424 361.098L209.74 369.688ZM224.582 374.756L227.428 366.218L227.428 366.218L224.582 374.756ZM241.234 381.996L245.743 374.207L245.743 374.207L241.234 381.996ZM269.108 396.476L266.379 405.052L266.379 405.052L269.108 396.476ZM311.824 395.39L309.387 386.726L309.223 386.772L309.061 386.825L311.824 395.39ZM331.01 384.892L325.127 378.081L324.962 378.224L324.803 378.375L331.01 384.892ZM331.734 351.588L326.573 358.961L326.7 359.05L326.829 359.134L331.734 351.588ZM300.964 353.76L308.21 359.099L308.274 359.011L308.337 358.921L300.964 353.76ZM293.724 365.706L301.85 369.575L301.926 369.415L301.996 369.251L293.724 365.706ZM285.76 359.914L277.302 356.838L277.175 357.187L277.077 357.546L285.76 359.914ZM289.742 352.312L297.115 357.473L297.137 357.442L297.158 357.411L289.742 352.312ZM299.154 342.9L304.146 350.388L304.146 350.388L299.154 342.9ZM338.25 346.882L333.089 354.255L333.173 354.314L333.258 354.37L338.25 346.882ZM341.146 390.322L334.169 384.637L334.104 384.716L334.042 384.797L341.146 390.322ZM321.236 405.526L317.603 397.292L317.557 397.312L317.512 397.333L321.236 405.526ZM269.832 408.06L272.389 399.431L272.24 399.387L272.091 399.348L269.832 408.06ZM251.37 401.182L255.395 393.132L255.324 393.097L255.253 393.063L251.37 401.182ZM230.374 393.218L227.631 401.79L227.653 401.797L227.676 401.804L230.374 393.218ZM209.016 383.806L213.227 375.852L213.135 375.803L213.041 375.756L209.016 383.806ZM187.296 374.032L182.304 381.52L183.134 382.074L184.065 382.432L187.296 374.032ZM184.762 372.584L188.787 364.534L188.215 364.248L187.608 364.046L184.762 372.584ZM182.228 371.498L186.253 363.448L182.519 361.581L178.683 363.226L182.228 371.498ZM160.87 378.376L158.888 369.597L158.719 369.635L158.551 369.68L160.87 378.376ZM130.462 378.376L134.697 370.435L134.593 370.379L134.487 370.326L130.462 378.376ZM121.412 371.498L114.498 377.26L114.634 377.423L114.778 377.58L121.412 371.498ZM120.326 354.484L112.661 349.767L112.605 349.857L112.552 349.949L120.326 354.484ZM127.204 346.52L121.804 339.32L121.652 339.434L121.505 339.554L127.204 346.52ZM155.44 347.606L152.28 356.033L152.322 356.049L152.364 356.064L155.44 347.606ZM177.522 357.018L173.497 365.068L179.299 367.969L183.886 363.382L177.522 357.018ZM184.4 350.14L190.764 356.504L190.931 356.337L191.09 356.161L184.4 350.14ZM190.916 343.262L197.28 349.626L197.28 349.626L190.916 343.262ZM209.378 317.56L217.388 321.663L217.388 321.663L209.378 317.56ZM222.772 286.428L231.252 289.443L235.153 278.471L223.552 277.462L222.772 286.428ZM190.192 280.998L187.824 289.681L187.916 289.706L188.009 289.729L190.192 280.998ZM161.232 269.052L156.602 276.769L156.649 276.798L156.697 276.826L161.232 269.052ZM140.598 250.228L133.074 255.166L133.164 255.303L133.258 255.437L140.598 250.228ZM141.684 190.86L133.95 186.257L133.934 186.285L133.917 186.313L141.684 190.86ZM165.214 166.244L160.309 158.698L160.309 158.698L165.214 166.244ZM229.288 164.072L224.725 171.829L224.725 171.829L229.288 164.072ZM235.442 211.132L227.909 206.207L227.885 206.244L227.862 206.281L235.442 211.132ZM223.496 224.164L227.521 232.214L227.967 231.991L228.385 231.72L223.496 224.164ZM219.876 218.01L225.276 225.21L225.428 225.096L225.575 224.976L219.876 218.01ZM228.926 207.512L221.726 202.112L221.638 202.23L221.553 202.351L228.926 207.512ZM223.858 169.502L227.993 161.508L227.993 161.508L223.858 169.502ZM171.368 172.76L165.511 165.927L165.511 165.927L171.368 172.76ZM156.164 195.204L164.582 198.389L164.595 198.352L164.609 198.315L156.164 195.204ZM161.594 254.934L168.263 248.89L168.263 248.89L161.594 254.934ZM189.106 272.31L186.206 280.83L186.287 280.858L186.37 280.884L189.106 272.31ZM225.306 279.55L224.461 288.51L231.474 289.172L233.801 282.523L225.306 279.55ZM230.012 265.432L221.43 262.722L221.43 262.722L230.012 265.432ZM234.356 251.676L225.844 248.754L225.807 248.859L225.774 248.966L234.356 251.676ZM249.198 203.168L240.53 200.746L240.518 200.789L240.506 200.833L249.198 203.168ZM266.574 157.556L274.624 161.581L274.654 161.521L274.683 161.46L266.574 157.556ZM277.434 138.37L269.946 133.378L269.923 133.411L269.901 133.445L277.434 138.37ZM293 122.08L287.877 114.68L287.809 114.728L287.741 114.776L293 122.08ZM332.096 116.65L330.88 125.567L330.88 125.567L332.096 116.65ZM344.766 121.356L350.416 114.35L350.335 114.285L350.253 114.222L344.766 121.356ZM362.142 144.524L353.892 148.12L353.909 148.16L353.927 148.199L362.142 144.524ZM342.956 178.552L334.225 176.369L334.212 176.418L334.201 176.467L342.956 178.552ZM345.49 165.52L336.644 163.861L336.594 164.131L336.56 164.404L345.49 165.52ZM334.992 132.216L329.37 139.244L329.41 139.276L329.451 139.308L334.992 132.216ZM327.39 128.958L325.625 137.783L326.096 137.878L326.575 137.921L327.39 128.958ZM288.656 138.37L282.177 132.123L282.173 132.127L288.656 138.37ZM273.09 160.814L281.14 164.839L281.163 164.793L281.186 164.746L273.09 160.814ZM257.162 205.702L265.932 207.726L265.935 207.711L265.938 207.697L257.162 205.702ZM248.836 263.622L239.868 262.867L239.867 262.875L248.836 263.622ZM248.112 272.31L257.075 273.125L257.078 273.091L257.081 273.057L248.112 272.31ZM247.026 280.274L238.171 278.664L236.183 289.597L247.291 289.27L247.026 280.274ZM269.832 275.93L273.024 284.345L273.149 284.297L273.273 284.246L269.832 275.93ZM307.48 255.296L303.109 247.429L303.08 247.445L303.051 247.461L307.48 255.296ZM323.408 240.454L315.92 235.462L315.897 235.495L315.875 235.529L323.408 240.454ZM333.182 219.458L324.592 216.773L324.564 216.861L324.539 216.949L333.182 219.458ZM168.11 364.62L173.209 372.036L185.781 363.393L172.135 356.57L168.11 364.62ZM154.716 358.828L151.605 367.273L154.716 358.828ZM134.082 358.466L129.452 350.749L129.268 350.859L129.09 350.978L134.082 358.466ZM133.358 371.136L140.131 365.209L139.934 364.984L139.722 364.772L133.358 371.136ZM155.078 371.136L152.105 362.641L151.842 362.733L151.585 362.841L155.078 371.136ZM359.296 178.552C359.296 191.342 356.767 202.175 351.994 211.307L367.946 219.645C374.274 207.539 377.296 193.757 377.296 178.552H359.296ZM352.034 211.231C346.978 220.684 340.517 228.891 332.633 235.899L344.591 249.353C354.083 240.916 361.861 231.023 367.906 219.721L352.034 211.231ZM332.633 235.899C324.387 243.229 315.855 249.363 307.04 254.335L315.884 270.013C325.893 264.366 335.461 257.469 344.591 249.353L332.633 235.899ZM307.175 254.26C301.277 257.455 294.792 261.127 287.725 265.27L296.827 280.798C303.758 276.736 310.063 273.167 315.749 270.088L307.175 254.26ZM287.811 265.22C281.495 268.829 274.694 272.006 267.396 274.743L273.716 291.597C281.863 288.542 289.542 284.962 296.741 280.848L287.811 265.22ZM267.396 274.743C260.764 277.23 253.518 278.514 245.578 278.514V296.514C255.497 296.514 264.902 294.902 273.716 291.597L267.396 274.743ZM236.74 285.814C234.466 297.637 230.84 308.726 225.875 319.107L242.113 326.873C247.767 315.051 251.863 302.489 254.416 289.214L236.74 285.814ZM225.909 319.037C221.031 329.015 214.731 337.851 206.996 345.586L219.724 358.314C228.882 349.156 236.339 338.685 242.079 326.943L225.909 319.037ZM206.996 345.586C205.165 347.418 202.82 349.455 199.909 351.694L210.883 365.962C214.246 363.375 217.211 360.826 219.724 358.314L206.996 345.586ZM199.996 351.628C197.514 353.49 194.653 355.299 191.387 357.041L199.857 372.923C203.831 370.804 207.486 368.51 210.796 366.028L199.996 351.628ZM192.665 373.482C198.27 375.432 203.072 377.034 207.056 378.278L212.424 361.098C208.685 359.929 204.075 358.393 198.579 356.482L192.665 373.482ZM206.745 378.175C210.912 379.646 215.912 381.353 221.736 383.294L227.428 366.218C221.668 364.298 216.773 362.626 212.735 361.201L206.745 378.175ZM221.736 383.294C227.834 385.327 232.795 387.51 236.725 389.785L245.743 374.207C240.502 371.173 234.362 368.529 227.428 366.218L221.736 383.294ZM236.725 389.785C241.251 392.405 245.654 395.024 249.935 397.64L259.321 382.28C254.914 379.587 250.388 376.896 245.743 374.207L236.725 389.785ZM249.935 397.64C254.95 400.704 260.446 403.164 266.379 405.052L271.837 387.9C267.152 386.409 262.994 384.525 259.321 382.28L249.935 397.64ZM266.379 405.052C272.86 407.115 280.491 408.01 289.018 408.01V390.01C281.617 390.01 275.974 389.216 271.837 387.9L266.379 405.052ZM289.018 408.01C297.696 408.01 306.229 406.651 314.587 403.955L309.061 386.825C302.456 388.955 295.786 390.01 289.018 390.01V408.01ZM314.261 404.054C323.188 401.543 330.94 397.388 337.217 391.409L324.803 378.375C320.944 382.05 315.905 384.893 309.387 386.726L314.261 404.054ZM336.893 391.703C344.326 385.284 347.974 376.692 347.974 366.792H329.974C329.974 371.855 328.313 375.33 325.127 378.081L336.893 391.703ZM347.974 366.792C347.974 357.503 344.594 349.213 336.639 344.042L326.829 359.134C328.527 360.238 329.974 362.084 329.974 366.792H347.974ZM336.895 344.215C330.289 339.59 322.486 337.52 313.996 337.52V355.52C319.503 355.52 323.526 356.828 326.573 358.961L336.895 344.215ZM313.996 337.52C305.393 337.52 298.438 341.674 293.591 348.599L308.337 358.921C310.247 356.193 311.98 355.52 313.996 355.52V337.52ZM293.719 348.421C290.128 353.295 287.278 357.9 285.452 362.161L301.996 369.251C303.066 366.755 305.043 363.396 308.21 359.099L293.719 348.421ZM285.598 361.837C285.078 362.929 284.618 363.799 284.221 364.474C283.817 365.162 283.532 365.557 283.38 365.745C283.201 365.966 283.345 365.728 283.857 365.382C284.387 365.023 285.678 364.308 287.57 364.308V382.308C292.807 382.308 296.086 378.657 297.371 377.07C299.05 374.996 300.523 372.361 301.85 369.575L285.598 361.837ZM287.57 364.308C288.778 364.308 290.211 364.663 291.505 365.579C292.715 366.436 293.301 367.427 293.541 367.937C293.771 368.425 293.78 368.668 293.746 368.452C293.717 368.262 293.674 367.85 293.674 367.154H275.674C275.674 369.626 275.92 372.765 277.255 375.602C277.977 377.137 279.167 378.898 281.101 380.268C283.119 381.697 285.396 382.308 287.57 382.308V364.308ZM293.674 367.154C293.674 365.962 293.876 364.36 294.443 362.282L277.077 357.546C276.196 360.777 275.674 364.002 275.674 367.154H293.674ZM294.218 362.99C294.903 361.106 295.858 359.269 297.115 357.473L282.369 347.151C280.248 350.181 278.547 353.413 277.302 356.838L294.218 362.99ZM297.158 357.411C299.215 354.42 301.55 352.119 304.146 350.388L294.162 335.412C289.518 338.508 285.579 342.482 282.326 347.213L297.158 357.411ZM304.146 350.388C305.768 349.307 308.75 348.28 313.996 348.28V330.28C306.693 330.28 299.78 331.666 294.162 335.412L304.146 350.388ZM313.996 348.28C321.099 348.28 327.378 350.258 333.089 354.255L343.411 339.509C334.642 333.37 324.751 330.28 313.996 330.28V348.28ZM333.258 354.37C337.916 357.476 340.11 361.501 340.11 367.516H358.11C358.11 355.672 353.064 345.941 343.242 339.394L333.258 354.37ZM340.11 367.516C340.11 374.208 338.123 379.784 334.169 384.637L348.123 396.007C354.788 387.828 358.11 378.2 358.11 367.516H340.11ZM334.042 384.797C329.967 390.036 324.566 394.22 317.603 397.292L324.869 413.76C334.317 409.592 342.189 403.64 348.25 395.847L334.042 384.797ZM317.512 397.333C310.742 400.41 303.568 401.956 295.896 401.956V419.956C306.083 419.956 315.802 417.882 324.96 413.719L317.512 397.333ZM295.896 401.956C285.451 401.956 277.732 401.014 272.389 399.431L267.275 416.689C274.964 418.967 284.621 419.956 295.896 419.956V401.956ZM272.091 399.348C266.161 397.811 260.601 395.735 255.395 393.132L247.345 409.232C253.723 412.421 260.471 414.931 267.573 416.772L272.091 399.348ZM255.253 393.063C249.193 390.164 241.765 387.364 233.072 384.632L227.676 401.804C235.876 404.381 242.446 406.89 247.487 409.301L255.253 393.063ZM233.117 384.646C227.765 382.933 221.158 380.05 213.227 375.852L204.805 391.76C213.285 396.25 220.917 399.641 227.631 401.79L233.117 384.646ZM213.041 375.756C204.663 371.567 197.149 368.179 190.527 365.632L184.065 382.432C189.993 384.712 196.959 387.84 204.991 391.856L213.041 375.756ZM192.288 366.544C191.191 365.812 190.01 365.146 188.787 364.534L180.737 380.634C181.444 380.987 181.953 381.287 182.304 381.52L192.288 366.544ZM187.608 364.046C187.415 363.982 186.98 363.812 186.253 363.448L178.203 379.548C179.407 380.15 180.661 380.704 181.916 381.122L187.608 364.046ZM178.683 363.226C172.451 365.896 165.857 368.023 158.888 369.597L162.852 387.155C170.846 385.35 178.49 382.892 185.773 379.77L178.683 363.226ZM158.551 369.68C152.014 371.423 145.675 372.272 139.512 372.272V390.272C147.347 390.272 155.246 389.19 163.189 387.072L158.551 369.68ZM139.512 372.272C139.272 372.272 137.811 372.096 134.697 370.435L126.227 386.317C130.353 388.518 134.925 390.272 139.512 390.272V372.272ZM134.487 370.326C132.13 369.148 129.989 367.535 128.046 365.416L114.778 377.58C118.145 381.253 122.037 384.226 126.437 386.426L134.487 370.326ZM128.326 365.736C127.094 364.258 126.792 363.113 126.792 362.086H108.792C108.792 367.816 110.903 372.946 114.498 377.26L128.326 365.736ZM126.792 362.086C126.792 362.16 126.78 361.955 126.964 361.403C127.148 360.85 127.492 360.061 128.1 359.019L112.552 349.949C110.46 353.536 108.792 357.68 108.792 362.086H126.792ZM127.991 359.201C129.435 356.854 131.08 354.977 132.903 353.486L121.505 339.554C118.019 342.407 115.078 345.839 112.661 349.767L127.991 359.201ZM132.604 353.72C134.5 352.298 135.421 352.262 135.53 352.262V334.262C130.33 334.262 125.7 336.398 121.804 339.32L132.604 353.72ZM135.53 352.262C139.612 352.262 145.124 353.349 152.28 356.033L158.6 339.179C150.311 336.071 142.55 334.262 135.53 334.262V352.262ZM152.364 356.064C160.043 358.856 167.083 361.861 173.497 365.068L181.547 348.968C174.447 345.418 166.765 342.148 158.516 339.148L152.364 356.064ZM183.886 363.382C186.299 360.969 188.592 358.676 190.764 356.504L178.036 343.776C175.864 345.948 173.571 348.241 171.158 350.654L183.886 363.382ZM191.09 356.161C193.162 353.858 195.226 351.68 197.28 349.626L184.552 336.898C182.262 339.188 179.982 341.595 177.71 344.119L191.09 356.161ZM197.28 349.626C205.238 341.668 211.929 332.321 217.388 321.663L201.368 313.457C196.691 322.588 191.074 330.376 184.552 336.898L197.28 349.626ZM217.388 321.663C222.643 311.404 227.263 300.662 231.252 289.443L214.292 283.413C210.558 293.914 206.249 303.927 201.368 313.457L217.388 321.663ZM223.552 277.462C212.915 276.537 202.524 274.804 192.375 272.267L188.009 289.729C199.097 292.501 210.426 294.388 221.992 295.394L223.552 277.462ZM192.56 272.315C182.629 269.607 173.715 265.914 165.767 261.278L156.697 276.826C166.125 282.326 176.517 286.597 187.824 289.681L192.56 272.315ZM165.862 261.335C158.403 256.859 152.475 251.413 147.938 245.019L133.258 255.437C139.34 264.006 147.168 271.109 156.602 276.769L165.862 261.335ZM148.122 245.29C144.155 239.244 141.996 231.849 141.996 222.716H123.996C123.996 234.82 126.905 245.766 133.074 255.166L148.122 245.29ZM141.996 222.716C141.996 212.99 144.457 203.938 149.451 195.407L133.917 186.313C127.327 197.572 123.996 209.757 123.996 222.716H141.996ZM149.418 195.463C154.764 186.482 161.65 179.295 170.119 173.79L160.309 158.698C149.471 165.743 140.671 174.966 133.95 186.257L149.418 195.463ZM170.119 173.79C178.37 168.427 187.053 165.832 196.346 165.832V147.832C183.436 147.832 171.365 151.512 160.309 158.698L170.119 173.79ZM196.346 165.832C209.169 165.832 218.385 168.1 224.725 171.829L233.851 156.315C223.78 150.391 211.035 147.832 196.346 147.832V165.832ZM224.725 171.829C229.059 174.379 232.596 179.818 232.596 191.946H250.596C250.596 176.562 245.927 163.418 233.851 156.315L224.725 171.829ZM232.596 191.946C232.596 196.461 231.202 201.17 227.909 206.207L242.975 216.057C247.887 208.544 250.596 200.463 250.596 191.946H232.596ZM227.862 206.281C224.397 211.694 221.247 214.899 218.607 216.608L228.385 231.72C233.95 228.119 238.764 222.637 243.022 215.983L227.862 206.281ZM219.471 216.114C219.087 216.306 218.946 216.363 218.977 216.351C218.99 216.346 219.17 216.273 219.462 216.189C219.614 216.146 219.863 216.08 220.184 216.022C220.481 215.968 221.011 215.888 221.686 215.888V233.888C223.004 233.888 224.041 233.601 224.407 233.496C224.911 233.353 225.347 233.189 225.662 233.063C226.296 232.81 226.94 232.504 227.521 232.214L219.471 216.114ZM221.686 215.888C222.247 215.888 224.245 216.087 225.932 217.962C226.685 218.798 227.068 219.653 227.252 220.266C227.426 220.847 227.428 221.225 227.428 221.268H209.428C209.428 223.642 209.942 227.102 212.553 230.004C215.326 233.085 218.953 233.888 221.686 233.888V215.888ZM227.428 221.268C227.428 221.534 227.383 222.192 227.014 223.023C226.622 223.905 226.002 224.665 225.276 225.21L214.476 210.81C210.779 213.583 209.428 217.624 209.428 221.268H227.428ZM225.575 224.976C229.164 222.039 232.734 217.766 236.299 212.673L221.553 202.351C218.36 206.911 215.897 209.637 214.177 211.044L225.575 224.976ZM236.126 212.912C240.807 206.671 243.356 199.616 243.356 191.946H225.356C225.356 195.377 224.285 198.7 221.726 202.112L236.126 212.912ZM243.356 191.946C243.356 178.907 239.218 167.314 227.993 161.508L219.723 177.496C222.496 178.93 225.356 182.299 225.356 191.946H243.356ZM227.993 161.508C219.279 157.001 208.538 155.072 196.346 155.072V173.072C206.839 173.072 214.44 174.763 219.723 177.496L227.993 161.508ZM196.346 155.072C184.56 155.072 174.085 158.578 165.511 165.927L177.225 179.593C182.166 175.358 188.343 173.072 196.346 173.072V155.072ZM165.511 165.927C157.476 172.814 151.575 181.626 147.719 192.093L164.609 198.315C167.51 190.441 171.746 184.29 177.225 179.593L165.511 165.927ZM147.746 192.019C143.95 202.051 142.096 212.793 142.096 224.164H160.096C160.096 214.78 161.62 206.215 164.582 198.389L147.746 192.019ZM142.096 224.164C142.096 238.657 146.104 251.244 154.925 260.978L168.263 248.89C163.087 243.179 160.096 235.252 160.096 224.164H142.096ZM154.925 260.978C163.094 269.992 173.636 276.551 186.206 280.83L192.006 263.79C181.891 260.347 174.091 255.322 168.263 248.89L154.925 260.978ZM186.37 280.884C198.373 284.715 211.078 287.248 224.461 288.51L226.151 270.59C213.953 269.439 202.524 267.145 191.842 263.736L186.37 280.884ZM233.801 282.523C235.519 277.615 237.117 272.821 238.594 268.142L221.43 262.722C220.011 267.214 218.472 271.832 216.811 276.577L233.801 282.523ZM238.594 268.142C240.042 263.557 241.49 258.972 242.938 254.386L225.774 248.966C224.326 253.551 222.878 258.136 221.43 262.722L238.594 268.142ZM242.868 254.598C248.484 238.239 253.492 221.874 257.89 205.503L240.506 200.833C236.216 216.8 231.329 232.774 225.844 248.754L242.868 254.598ZM257.866 205.59C262.31 189.684 267.903 175.022 274.624 161.581L258.524 153.531C251.247 168.085 245.256 183.831 240.53 200.746L257.866 205.59ZM274.683 161.46C277.645 155.309 281.07 149.254 284.967 143.295L269.901 133.445C265.592 140.035 261.778 146.771 258.465 153.652L274.683 161.46ZM284.922 143.362C288.7 137.696 293.147 133.064 298.259 129.384L287.741 114.776C280.786 119.784 274.856 126.012 269.946 133.378L284.922 143.362ZM298.123 129.48C302.61 126.373 308.452 124.564 316.168 124.564V106.564C305.543 106.564 295.939 109.099 287.877 114.68L298.123 129.48ZM316.168 124.564C321.067 124.564 325.97 124.898 330.88 125.567L333.312 107.733C327.603 106.954 321.888 106.564 316.168 106.564V124.564ZM330.88 125.567C335.163 126.152 337.749 127.313 339.279 128.49L350.253 114.222C345.508 110.572 339.648 108.596 333.312 107.733L330.88 125.567ZM339.116 128.362C345.392 133.423 350.328 139.944 353.892 148.12L370.392 140.928C365.751 130.28 359.103 121.356 350.416 114.35L339.116 128.362ZM353.927 148.199C357.366 155.888 359.296 165.89 359.296 178.552H377.296C377.296 164.184 375.123 151.502 370.357 140.849L353.927 148.199ZM351.687 180.735C352.959 175.648 353.883 170.939 354.421 166.636L336.56 164.404C336.132 167.823 335.366 171.802 334.225 176.369L351.687 180.735ZM354.336 167.179C355.138 162.901 355.576 158.834 355.576 155.022H337.576C337.576 157.484 337.29 160.417 336.644 163.861L354.336 167.179ZM355.576 155.022C355.576 142.868 350.266 132.728 340.533 125.124L329.451 139.308C335.164 143.771 337.576 148.834 337.576 155.022H355.576ZM340.614 125.188C337.048 122.335 332.884 120.42 328.205 119.995L326.575 137.921C327.206 137.978 328.109 138.235 329.37 139.244L340.614 125.188ZM329.155 120.133C325.882 119.478 321.815 119.234 317.254 119.234V137.234C321.381 137.234 324.072 137.473 325.625 137.783L329.155 120.133ZM317.254 119.234C303.115 119.234 290.903 123.074 282.177 132.123L295.135 144.617C299.441 140.151 306.294 137.234 317.254 137.234V119.234ZM282.173 132.127C275.218 139.35 269.494 147.618 264.994 156.882L281.186 164.746C284.891 157.117 289.544 150.422 295.139 144.613L282.173 132.127ZM265.04 156.789C257.705 171.459 252.159 187.107 248.386 203.707L265.938 207.697C269.405 192.441 274.478 178.163 281.14 164.839L265.04 156.789ZM248.392 203.678C244.645 219.918 241.82 239.678 239.868 262.867L257.804 264.377C259.713 241.713 262.439 222.86 265.932 207.726L248.392 203.678ZM239.867 262.875C239.626 265.771 239.384 268.667 239.143 271.563L257.081 273.057C257.322 270.161 257.564 267.265 257.805 264.369L239.867 262.875ZM239.149 271.495C238.932 273.88 238.607 276.269 238.171 278.664L255.881 281.884C256.411 278.969 256.809 276.049 257.075 273.125L239.149 271.495ZM247.291 289.27C256.401 289.002 265.002 287.388 273.024 284.345L266.64 267.515C260.664 269.782 254.062 271.063 246.761 271.278L247.291 289.27ZM273.273 284.246C280.701 281.172 287.766 277.578 294.459 273.459L285.025 258.129C279.169 261.733 272.96 264.896 266.391 267.614L273.273 284.246ZM294.459 273.459C300.653 269.647 306.469 266.206 311.909 263.131L303.051 247.461C297.39 250.661 291.381 254.218 285.025 258.129L294.459 273.459ZM311.851 263.163C319.652 258.83 326.043 252.869 330.941 245.379L315.875 235.529C312.567 240.588 308.34 244.522 303.109 247.429L311.851 263.163ZM330.896 245.446C335.747 238.17 339.396 230.335 341.825 221.967L324.539 216.949C322.624 223.544 319.757 229.706 315.92 235.462L330.896 245.446ZM341.772 222.142C344.271 214.146 346.284 206.357 347.799 198.779L330.149 195.249C328.768 202.151 326.919 209.325 324.592 216.773L341.772 222.142ZM347.799 198.779C349.234 191.606 350.538 185.565 351.711 180.637L334.201 176.467C332.961 181.675 331.61 187.942 330.149 195.249L347.799 198.779ZM172.135 356.57C167.492 354.249 162.722 352.186 157.827 350.383L151.605 367.273C155.88 368.848 160.04 370.647 164.085 372.67L172.135 356.57ZM157.827 350.383C152.431 348.395 147.03 347.294 141.684 347.294V365.294C144.544 365.294 147.83 365.882 151.605 367.273L157.827 350.383ZM141.684 347.294C137.299 347.294 133.176 348.514 129.452 350.749L138.712 366.183C139.815 365.522 140.76 365.294 141.684 365.294V347.294ZM129.09 350.978C124.994 353.708 121.824 358.078 121.824 363.896H139.824C139.824 364.111 139.796 364.389 139.71 364.703C139.625 365.018 139.499 365.302 139.356 365.54C139.071 366.015 138.841 366.11 139.074 365.954L129.09 350.978ZM121.824 363.896C121.824 368.644 123.137 373.643 126.994 377.5L139.722 364.772C139.797 364.847 139.86 364.929 139.907 365.004C139.952 365.077 139.961 365.112 139.952 365.086C139.93 365.024 139.824 364.674 139.824 363.896H121.824ZM126.585 377.063C129.861 380.807 134.324 383.032 139.512 383.032V365.032C139.511 365.032 139.525 365.032 139.554 365.035C139.583 365.038 139.623 365.044 139.672 365.054C139.775 365.077 139.887 365.114 139.996 365.165C140.103 365.215 140.173 365.263 140.202 365.286C140.23 365.308 140.203 365.292 140.131 365.209L126.585 377.063ZM139.512 383.032C146.309 383.032 152.713 381.897 158.571 379.431L151.585 362.841C148.272 364.236 144.299 365.032 139.512 365.032V383.032ZM158.051 379.631C163.563 377.702 168.633 375.182 173.209 372.036L163.011 357.204C159.864 359.367 156.246 361.192 152.105 362.641L158.051 379.631Z" fill="black" fill-opacity="0.2" mask="url(#path-3-outside-1_2032_9)"/>
</g>
</g>
<defs>
<filter id="filter0_di_2032_9" x="4" y="8" width="505" height="505" filterUnits="userSpaceOnUse" color-interpolation-filters="sRGB">
<feFlood flood-opacity="0" result="BackgroundImageFix"/>
<feColorMatrix in="SourceAlpha" type="matrix" values="0 0 0 0 0 0 0 0 0 0 0 0 0 0 0 0 0 0 127 0" result="hardAlpha"/>
<feOffset dy="4"/>
<feGaussianBlur stdDeviation="2"/>
<feComposite in2="hardAlpha" operator="out"/>
<feColorMatrix type="matrix" values="0 0 0 0 0 0 0 0 0 0 0 0 0 0 0 0 0 0 0.25 0"/>
<feBlend mode="normal" in2="BackgroundImageFix" result="effect1_dropShadow_2032_9"/>
<feBlend mode="normal" in="SourceGraphic" in2="effect1_dropShadow_2032_9" result="shape"/>
<feColorMatrix in="SourceAlpha" type="matrix" values="0 0 0 0 0 0 0 0 0 0 0 0 0 0 0 0 0 0 127 0" result="hardAlpha"/>
<feOffset dy="4"/>
<feGaussianBlur stdDeviation="2"/>
<feComposite in2="hardAlpha" operator="arithmetic" k2="-1" k3="1"/>
<feColorMatrix type="matrix" values="0 0 0 0 1 0 0 0 0 1 0 0 0 0 1 0 0 0 0.65 0"/>
<feBlend mode="normal" in2="shape" result="effect2_innerShadow_2032_9"/>
</filter>
<filter id="filter1_ddi_2032_9" x="-23" y="-22" width="558" height="558" filterUnits="userSpaceOnUse" color-interpolation-filters="sRGB">
<feFlood flood-opacity="0" result="BackgroundImageFix"/>
<feColorMatrix in="SourceAlpha" type="matrix" values="0 0 0 0 0 0 0 0 0 0 0 0 0 0 0 0 0 0 127 0" result="hardAlpha"/>
<feOffset dy="4"/>
<feGaussianBlur stdDeviation="2"/>
<feComposite in2="hardAlpha" operator="out"/>
<feColorMatrix type="matrix" values="0 0 0 0 1 0 0 0 0 1 0 0 0 0 1 0 0 0 0.65 0"/>
<feBlend mode="normal" in2="BackgroundImageFix" result="effect1_dropShadow_2032_9"/>
<feColorMatrix in="SourceAlpha" type="matrix" values="0 0 0 0 0 0 0 0 0 0 0 0 0 0 0 0 0 0 127 0" result="hardAlpha"/>
<feOffset/>
<feGaussianBlur stdDeviation="37"/>
<feComposite in2="hardAlpha" operator="out"/>
<feColorMatrix type="matrix" values="0 0 0 0 0 0 0 0 0 0 0 0 0 0 0 0 0 0 0.2 0"/>
<feBlend mode="normal" in2="effect1_dropShadow_2032_9" result="effect2_dropShadow_2032_9"/>
<feBlend mode="normal" in="SourceGraphic" in2="effect2_dropShadow_2032_9" result="shape"/>
<feColorMatrix in="SourceAlpha" type="matrix" values="0 0 0 0 0 0 0 0 0 0 0 0 0 0 0 0 0 0 127 0" result="hardAlpha"/>
<feOffset dy="4"/>
<feGaussianBlur stdDeviation="2"/>
<feComposite in2="hardAlpha" operator="arithmetic" k2="-1" k3="1"/>
<feColorMatrix type="matrix" values="0 0 0 0 0 0 0 0 0 0 0 0 0 0 0 0 0 0 0.25 0"/>
<feBlend mode="normal" in2="shape" result="effect3_innerShadow_2032_9"/>
</filter>
<filter id="filter2_d_2032_9" x="113.792" y="115.564" width="258.504" height="303.392" filterUnits="userSpaceOnUse" color-interpolation-filters="sRGB">
<feFlood flood-opacity="0" result="BackgroundImageFix"/>
<feColorMatrix in="SourceAlpha" type="matrix" values="0 0 0 0 0 0 0 0 0 0 0 0 0 0 0 0 0 0 127 0" result="hardAlpha"/>
<feOffset dy="4"/>
<feGaussianBlur stdDeviation="2"/>
<feComposite in2="hardAlpha" operator="out"/>
<feColorMatrix type="matrix" values="0 0 0 0 0 0 0 0 0 0 0 0 0 0 0 0 0 0 0.25 0"/>
<feBlend mode="normal" in2="BackgroundImageFix" result="effect1_dropShadow_2032_9"/>
<feBlend mode="normal" in="SourceGraphic" in2="effect1_dropShadow_2032_9" result="shape"/>
</filter>
<clipPath id="clip0_2032_9">
<rect width="512" height="512" fill="white"/>
</clipPath>
</defs>
</svg>
