<svg width="512" height="512" viewBox="0 0 512 512" fill="none" xmlns="http://www.w3.org/2000/svg">
<g clip-path="url(#clip0_2027_3)">
<g filter="url(#filter0_dii_2027_3)">
<circle cx="253" cy="256" r="242" fill="#AA051B"/>
</g>
<g filter="url(#filter1_di_2027_3)">
<circle cx="255.5" cy="255.5" r="186.5" fill="#1E1E1E" fill-opacity="0.7" shape-rendering="crispEdges"/>
</g>
<g filter="url(#filter2_di_2027_3)">
<circle cx="255.5" cy="255.5" r="164.5" fill="#AA051B"/>
</g>
<g filter="url(#filter3_ddi_2027_3)">
<circle cx="257.5" cy="257.5" r="139.5" fill="#AA051B"/>
</g>
<g filter="url(#filter4_d_2027_3)">
<mask id="path-5-outside-1_2027_3" maskUnits="userSpaceOnUse" x="149" y="146" width="200" height="233" fill="black">
<rect fill="white" x="149" y="146" width="200" height="233"/>
<path d="M339.496 200.952C339.496 211.083 337.487 219.991 333.47 227.676C329.453 235.187 324.3 241.737 318.012 247.326C311.724 252.915 305.174 257.631 298.362 261.474C294.17 263.745 289.541 266.365 284.476 269.334C279.585 272.129 274.345 274.574 268.756 276.67C263.167 278.766 257.141 279.814 250.678 279.814C248.931 288.897 246.137 297.455 242.294 305.49C238.451 313.35 233.473 320.337 227.36 326.45C225.788 328.022 223.867 329.681 221.596 331.428C219.5 333 217.142 334.485 214.522 335.882C218.539 337.279 221.945 338.415 224.74 339.288C227.709 340.336 231.29 341.559 235.482 342.956C240.198 344.528 244.215 346.275 247.534 348.196C250.853 350.117 254.084 352.039 257.228 353.96C260.372 355.881 263.865 357.453 267.708 358.676C271.551 359.899 276.354 360.51 282.118 360.51C287.707 360.51 293.209 359.637 298.624 357.89C304.213 356.318 308.842 353.785 312.51 350.292C316.353 346.973 318.274 342.607 318.274 337.192C318.274 332.127 316.527 328.459 313.034 326.188C309.541 323.743 305.261 322.52 300.196 322.52C296.353 322.52 293.209 324.267 290.764 327.76C288.319 331.079 286.572 333.961 285.524 336.406C283.777 340.074 282.293 341.908 281.07 341.908C279.673 341.908 278.974 340.423 278.974 337.454C278.974 335.882 279.236 334.135 279.76 332.214C280.459 330.293 281.419 328.459 282.642 326.712C284.563 323.917 286.834 321.647 289.454 319.9C292.074 318.153 295.655 317.28 300.196 317.28C306.659 317.28 312.51 319.114 317.75 322.782C322.99 326.275 325.61 331.253 325.61 337.716C325.61 344.004 323.689 349.506 319.846 354.222C316.178 358.938 311.375 362.606 305.436 365.226C299.672 367.846 293.559 369.156 287.096 369.156C279.236 369.156 272.948 368.457 268.232 367.06C263.516 365.837 259.062 364.178 254.87 362.082C250.853 360.161 245.787 358.239 239.674 356.318C235.307 354.921 230.155 352.65 224.216 349.506C218.277 346.537 213.037 344.179 208.496 342.432C207.972 342.083 207.361 341.733 206.662 341.384C206.138 341.209 205.527 340.947 204.828 340.598C199.937 342.694 194.785 344.353 189.37 345.576C184.13 346.973 178.977 347.672 173.912 347.672C172.165 347.672 169.982 346.973 167.362 345.576C164.917 344.353 162.733 342.694 160.812 340.598C159.065 338.502 158.192 336.231 158.192 333.786C158.192 332.214 158.803 330.38 160.026 328.284C161.423 326.013 163.083 324.092 165.004 322.52C167.1 320.948 169.109 320.162 171.03 320.162C175.047 320.162 179.851 321.21 185.44 323.306C191.204 325.402 196.531 327.673 201.422 330.118C203.169 328.371 204.828 326.712 206.4 325.14C207.972 323.393 209.544 321.734 211.116 320.162C216.356 314.922 220.81 308.721 224.478 301.56C228.146 294.399 231.377 286.888 234.172 279.028C226.137 278.329 218.277 277.019 210.592 275.098C202.907 273.002 195.92 270.12 189.632 266.452C183.519 262.784 178.541 258.243 174.698 252.828C171.03 247.239 169.196 240.601 169.196 232.916C169.196 224.707 171.292 217.021 175.484 209.86C179.851 202.524 185.527 196.585 192.514 192.044C199.501 187.503 207.011 185.232 215.046 185.232C225.002 185.232 232.949 186.979 238.888 190.472C244.827 193.965 247.796 200.69 247.796 210.646C247.796 215.362 246.311 219.991 243.342 224.532C240.547 228.899 237.665 232.043 234.696 233.964C233.997 234.313 233.561 234.488 233.386 234.488C231.814 234.488 231.028 233.615 231.028 231.868C231.028 230.82 231.377 230.034 232.076 229.51C233.997 227.938 236.181 225.405 238.626 221.912C241.246 218.419 242.556 214.663 242.556 210.646C242.556 202.437 240.023 197.022 234.958 194.402C229.893 191.782 223.255 190.472 215.046 190.472C207.885 190.472 201.859 192.568 196.968 196.76C192.077 200.952 188.409 206.367 185.964 213.004C183.519 219.467 182.296 226.453 182.296 233.964C182.296 243.221 184.829 250.645 189.894 256.234C194.959 261.823 201.597 266.015 209.806 268.81C218.015 271.43 226.749 273.177 236.006 274.05C237.229 270.557 238.364 267.151 239.412 263.832C240.46 260.513 241.508 257.195 242.556 253.876C246.573 242.173 250.154 230.471 253.298 218.768C256.617 206.891 260.809 195.887 265.874 185.756C268.145 181.04 270.765 176.411 273.734 171.87C276.878 167.154 280.633 163.224 285 160.08C289.541 156.936 295.131 155.364 301.768 155.364C305.611 155.364 309.453 155.626 313.296 156.15C317.139 156.674 320.195 157.809 322.466 159.556C327.881 163.923 332.073 169.512 335.042 176.324C338.011 182.961 339.496 191.171 339.496 200.952ZM321.156 200.952C322.029 197.459 322.641 194.315 322.99 191.52C323.514 188.725 323.776 186.193 323.776 183.922C323.776 177.285 320.981 171.783 315.392 167.416C313.645 166.019 311.811 165.233 309.89 165.058C308.143 164.709 305.698 164.534 302.554 164.534C293.471 164.534 286.572 166.979 281.856 171.87C277.315 176.586 273.559 182.001 270.59 188.114C265.525 198.245 261.682 209.074 259.062 220.602C256.442 231.955 254.433 245.929 253.036 262.522C252.861 264.618 252.687 266.714 252.512 268.81C252.337 270.731 252.075 272.653 251.726 274.574C257.665 274.399 263.167 273.351 268.232 271.43C273.297 269.334 278.101 266.889 282.642 264.094C287.183 261.299 291.463 258.767 295.48 256.496C300.196 253.876 304.039 250.295 307.008 245.754C310.152 241.038 312.51 235.973 314.082 230.558C315.829 224.969 317.226 219.554 318.274 214.314C319.322 209.074 320.283 204.62 321.156 200.952ZM194.61 335.62C191.466 334.048 188.235 332.651 184.916 331.428C181.597 330.205 178.453 329.594 175.484 329.594C173.563 329.594 171.729 330.118 169.982 331.166C168.41 332.214 167.624 333.524 167.624 335.096C167.624 337.367 168.235 339.113 169.458 340.336C170.681 341.733 172.165 342.432 173.912 342.432C178.104 342.432 181.859 341.733 185.178 340.336C188.671 339.113 191.815 337.541 194.61 335.62Z"/>
</mask>
<path d="M339.496 200.952C339.496 211.083 337.487 219.991 333.47 227.676C329.453 235.187 324.3 241.737 318.012 247.326C311.724 252.915 305.174 257.631 298.362 261.474C294.17 263.745 289.541 266.365 284.476 269.334C279.585 272.129 274.345 274.574 268.756 276.67C263.167 278.766 257.141 279.814 250.678 279.814C248.931 288.897 246.137 297.455 242.294 305.49C238.451 313.35 233.473 320.337 227.36 326.45C225.788 328.022 223.867 329.681 221.596 331.428C219.5 333 217.142 334.485 214.522 335.882C218.539 337.279 221.945 338.415 224.74 339.288C227.709 340.336 231.29 341.559 235.482 342.956C240.198 344.528 244.215 346.275 247.534 348.196C250.853 350.117 254.084 352.039 257.228 353.96C260.372 355.881 263.865 357.453 267.708 358.676C271.551 359.899 276.354 360.51 282.118 360.51C287.707 360.51 293.209 359.637 298.624 357.89C304.213 356.318 308.842 353.785 312.51 350.292C316.353 346.973 318.274 342.607 318.274 337.192C318.274 332.127 316.527 328.459 313.034 326.188C309.541 323.743 305.261 322.52 300.196 322.52C296.353 322.52 293.209 324.267 290.764 327.76C288.319 331.079 286.572 333.961 285.524 336.406C283.777 340.074 282.293 341.908 281.07 341.908C279.673 341.908 278.974 340.423 278.974 337.454C278.974 335.882 279.236 334.135 279.76 332.214C280.459 330.293 281.419 328.459 282.642 326.712C284.563 323.917 286.834 321.647 289.454 319.9C292.074 318.153 295.655 317.28 300.196 317.28C306.659 317.28 312.51 319.114 317.75 322.782C322.99 326.275 325.61 331.253 325.61 337.716C325.61 344.004 323.689 349.506 319.846 354.222C316.178 358.938 311.375 362.606 305.436 365.226C299.672 367.846 293.559 369.156 287.096 369.156C279.236 369.156 272.948 368.457 268.232 367.06C263.516 365.837 259.062 364.178 254.87 362.082C250.853 360.161 245.787 358.239 239.674 356.318C235.307 354.921 230.155 352.65 224.216 349.506C218.277 346.537 213.037 344.179 208.496 342.432C207.972 342.083 207.361 341.733 206.662 341.384C206.138 341.209 205.527 340.947 204.828 340.598C199.937 342.694 194.785 344.353 189.37 345.576C184.13 346.973 178.977 347.672 173.912 347.672C172.165 347.672 169.982 346.973 167.362 345.576C164.917 344.353 162.733 342.694 160.812 340.598C159.065 338.502 158.192 336.231 158.192 333.786C158.192 332.214 158.803 330.38 160.026 328.284C161.423 326.013 163.083 324.092 165.004 322.52C167.1 320.948 169.109 320.162 171.03 320.162C175.047 320.162 179.851 321.21 185.44 323.306C191.204 325.402 196.531 327.673 201.422 330.118C203.169 328.371 204.828 326.712 206.4 325.14C207.972 323.393 209.544 321.734 211.116 320.162C216.356 314.922 220.81 308.721 224.478 301.56C228.146 294.399 231.377 286.888 234.172 279.028C226.137 278.329 218.277 277.019 210.592 275.098C202.907 273.002 195.92 270.12 189.632 266.452C183.519 262.784 178.541 258.243 174.698 252.828C171.03 247.239 169.196 240.601 169.196 232.916C169.196 224.707 171.292 217.021 175.484 209.86C179.851 202.524 185.527 196.585 192.514 192.044C199.501 187.503 207.011 185.232 215.046 185.232C225.002 185.232 232.949 186.979 238.888 190.472C244.827 193.965 247.796 200.69 247.796 210.646C247.796 215.362 246.311 219.991 243.342 224.532C240.547 228.899 237.665 232.043 234.696 233.964C233.997 234.313 233.561 234.488 233.386 234.488C231.814 234.488 231.028 233.615 231.028 231.868C231.028 230.82 231.377 230.034 232.076 229.51C233.997 227.938 236.181 225.405 238.626 221.912C241.246 218.419 242.556 214.663 242.556 210.646C242.556 202.437 240.023 197.022 234.958 194.402C229.893 191.782 223.255 190.472 215.046 190.472C207.885 190.472 201.859 192.568 196.968 196.76C192.077 200.952 188.409 206.367 185.964 213.004C183.519 219.467 182.296 226.453 182.296 233.964C182.296 243.221 184.829 250.645 189.894 256.234C194.959 261.823 201.597 266.015 209.806 268.81C218.015 271.43 226.749 273.177 236.006 274.05C237.229 270.557 238.364 267.151 239.412 263.832C240.46 260.513 241.508 257.195 242.556 253.876C246.573 242.173 250.154 230.471 253.298 218.768C256.617 206.891 260.809 195.887 265.874 185.756C268.145 181.04 270.765 176.411 273.734 171.87C276.878 167.154 280.633 163.224 285 160.08C289.541 156.936 295.131 155.364 301.768 155.364C305.611 155.364 309.453 155.626 313.296 156.15C317.139 156.674 320.195 157.809 322.466 159.556C327.881 163.923 332.073 169.512 335.042 176.324C338.011 182.961 339.496 191.171 339.496 200.952ZM321.156 200.952C322.029 197.459 322.641 194.315 322.99 191.52C323.514 188.725 323.776 186.193 323.776 183.922C323.776 177.285 320.981 171.783 315.392 167.416C313.645 166.019 311.811 165.233 309.89 165.058C308.143 164.709 305.698 164.534 302.554 164.534C293.471 164.534 286.572 166.979 281.856 171.87C277.315 176.586 273.559 182.001 270.59 188.114C265.525 198.245 261.682 209.074 259.062 220.602C256.442 231.955 254.433 245.929 253.036 262.522C252.861 264.618 252.687 266.714 252.512 268.81C252.337 270.731 252.075 272.653 251.726 274.574C257.665 274.399 263.167 273.351 268.232 271.43C273.297 269.334 278.101 266.889 282.642 264.094C287.183 261.299 291.463 258.767 295.48 256.496C300.196 253.876 304.039 250.295 307.008 245.754C310.152 241.038 312.51 235.973 314.082 230.558C315.829 224.969 317.226 219.554 318.274 214.314C319.322 209.074 320.283 204.62 321.156 200.952ZM194.61 335.62C191.466 334.048 188.235 332.651 184.916 331.428C181.597 330.205 178.453 329.594 175.484 329.594C173.563 329.594 171.729 330.118 169.982 331.166C168.41 332.214 167.624 333.524 167.624 335.096C167.624 337.367 168.235 339.113 169.458 340.336C170.681 341.733 172.165 342.432 173.912 342.432C178.104 342.432 181.859 341.733 185.178 340.336C188.671 339.113 191.815 337.541 194.61 335.62Z" fill="white" shape-rendering="crispEdges"/>
<path d="M333.47 227.676L341.406 231.921L341.426 231.883L341.446 231.845L333.47 227.676ZM298.362 261.474L302.649 269.388L302.717 269.351L302.784 269.313L298.362 261.474ZM284.476 269.334L288.941 277.148L288.985 277.123L289.027 277.098L284.476 269.334ZM268.756 276.67L271.916 285.097L271.916 285.097L268.756 276.67ZM250.678 279.814V270.814H243.244L241.84 278.114L250.678 279.814ZM242.294 305.49L250.379 309.443L250.396 309.408L250.413 309.373L242.294 305.49ZM227.36 326.45L220.996 320.086L220.996 320.086L227.36 326.45ZM221.596 331.428L226.996 338.628L227.04 338.595L227.083 338.562L221.596 331.428ZM214.522 335.882L210.287 327.941L192.132 337.623L211.565 344.382L214.522 335.882ZM224.74 339.288L227.735 330.801L227.581 330.747L227.424 330.698L224.74 339.288ZM235.482 342.956L238.328 334.418L238.328 334.418L235.482 342.956ZM247.534 348.196L252.043 340.407L252.043 340.407L247.534 348.196ZM267.708 358.676L264.979 367.252L264.979 367.252L267.708 358.676ZM298.624 357.89L296.187 349.226L296.023 349.272L295.861 349.325L298.624 357.89ZM312.51 350.292L306.627 343.481L306.462 343.624L306.303 343.775L312.51 350.292ZM313.034 326.188L307.873 333.561L308 333.65L308.129 333.734L313.034 326.188ZM290.764 327.76L298.01 333.099L298.074 333.011L298.137 332.921L290.764 327.76ZM285.524 336.406L293.65 340.275L293.726 340.115L293.796 339.951L285.524 336.406ZM279.76 332.214L271.302 329.138L271.175 329.487L271.077 329.846L279.76 332.214ZM282.642 326.712L290.015 331.873L290.037 331.842L290.058 331.811L282.642 326.712ZM289.454 319.9L294.446 327.388L294.446 327.388L289.454 319.9ZM317.75 322.782L312.589 330.155L312.673 330.214L312.758 330.27L317.75 322.782ZM319.846 354.222L312.869 348.537L312.804 348.616L312.742 348.697L319.846 354.222ZM305.436 365.226L301.803 356.992L301.757 357.012L301.712 357.033L305.436 365.226ZM268.232 367.06L270.789 358.431L270.64 358.387L270.491 358.348L268.232 367.06ZM254.87 362.082L258.895 354.032L258.824 353.997L258.753 353.963L254.87 362.082ZM239.674 356.318L236.931 364.89L236.953 364.897L236.976 364.904L239.674 356.318ZM224.216 349.506L228.427 341.552L228.335 341.503L228.241 341.456L224.216 349.506ZM208.496 342.432L203.504 349.92L204.334 350.474L205.265 350.832L208.496 342.432ZM206.662 341.384L210.687 333.334L210.115 333.048L209.508 332.846L206.662 341.384ZM204.828 340.598L208.853 332.548L205.119 330.681L201.283 332.326L204.828 340.598ZM189.37 345.576L187.388 336.797L187.219 336.835L187.051 336.88L189.37 345.576ZM167.362 345.576L171.597 337.635L171.493 337.579L171.387 337.526L167.362 345.576ZM160.812 340.598L153.898 346.36L154.034 346.523L154.178 346.68L160.812 340.598ZM160.026 328.284L152.361 323.567L152.305 323.657L152.252 323.749L160.026 328.284ZM165.004 322.52L159.604 315.32L159.452 315.434L159.305 315.554L165.004 322.52ZM185.44 323.306L182.28 331.733L182.322 331.749L182.364 331.764L185.44 323.306ZM201.422 330.118L197.397 338.168L203.199 341.069L207.786 336.482L201.422 330.118ZM206.4 325.14L212.764 331.504L212.931 331.337L213.09 331.161L206.4 325.14ZM211.116 320.162L217.48 326.526L217.48 326.526L211.116 320.162ZM224.478 301.56L232.488 305.663L232.488 305.663L224.478 301.56ZM234.172 279.028L242.652 282.043L246.553 271.071L234.952 270.062L234.172 279.028ZM210.592 275.098L208.224 283.781L208.316 283.806L208.409 283.829L210.592 275.098ZM189.632 266.452L185.002 274.169L185.049 274.198L185.097 274.226L189.632 266.452ZM174.698 252.828L167.174 257.766L167.264 257.903L167.358 258.037L174.698 252.828ZM175.484 209.86L167.75 205.257L167.734 205.285L167.717 205.313L175.484 209.86ZM192.514 192.044L187.609 184.498L187.609 184.498L192.514 192.044ZM238.888 190.472L234.325 198.229L234.325 198.229L238.888 190.472ZM243.342 224.532L235.809 219.607L235.785 219.644L235.762 219.681L243.342 224.532ZM234.696 233.964L238.721 242.014L239.167 241.791L239.585 241.52L234.696 233.964ZM232.076 229.51L237.476 236.71L237.628 236.596L237.775 236.476L232.076 229.51ZM238.626 221.912L231.426 216.512L231.338 216.63L231.253 216.751L238.626 221.912ZM234.958 194.402L239.093 186.408L239.093 186.408L234.958 194.402ZM196.968 196.76L191.111 189.927L191.111 189.927L196.968 196.76ZM185.964 213.004L194.382 216.189L194.395 216.152L194.409 216.115L185.964 213.004ZM189.894 256.234L196.563 250.19L196.563 250.19L189.894 256.234ZM209.806 268.81L206.906 277.33L206.987 277.358L207.07 277.384L209.806 268.81ZM236.006 274.05L235.161 283.01L242.174 283.672L244.501 277.023L236.006 274.05ZM239.412 263.832L230.83 261.122L230.83 261.122L239.412 263.832ZM242.556 253.876L234.044 250.954L234.007 251.059L233.974 251.166L242.556 253.876ZM253.298 218.768L244.63 216.346L244.618 216.389L244.606 216.433L253.298 218.768ZM265.874 185.756L273.924 189.781L273.954 189.721L273.983 189.66L265.874 185.756ZM273.734 171.87L266.246 166.878L266.223 166.911L266.201 166.945L273.734 171.87ZM285 160.08L279.877 152.68L279.809 152.728L279.741 152.776L285 160.08ZM313.296 156.15L312.08 165.067L312.08 165.067L313.296 156.15ZM322.466 159.556L328.116 152.55L328.035 152.485L327.953 152.422L322.466 159.556ZM335.042 176.324L326.792 179.92L326.809 179.96L326.827 179.999L335.042 176.324ZM321.156 200.952L312.425 198.769L312.412 198.818L312.401 198.867L321.156 200.952ZM322.99 191.52L314.144 189.861L314.094 190.131L314.06 190.404L322.99 191.52ZM315.392 167.416L309.77 174.444L309.81 174.476L309.851 174.508L315.392 167.416ZM309.89 165.058L308.125 173.883L308.596 173.978L309.075 174.021L309.89 165.058ZM281.856 171.87L275.377 165.623L275.373 165.627L281.856 171.87ZM270.59 188.114L278.64 192.139L278.663 192.093L278.686 192.046L270.59 188.114ZM259.062 220.602L267.832 222.626L267.835 222.611L267.838 222.597L259.062 220.602ZM253.036 262.522L244.068 261.767L244.067 261.775L253.036 262.522ZM252.512 268.81L261.475 269.625L261.478 269.591L261.481 269.557L252.512 268.81ZM251.726 274.574L242.871 272.964L240.883 283.897L251.991 283.57L251.726 274.574ZM268.232 271.43L271.424 279.845L271.549 279.797L271.673 279.746L268.232 271.43ZM295.48 256.496L291.109 248.629L291.08 248.645L291.051 248.661L295.48 256.496ZM307.008 245.754L299.52 240.762L299.497 240.795L299.475 240.829L307.008 245.754ZM314.082 230.558L305.492 227.874L305.464 227.961L305.439 228.049L314.082 230.558ZM194.61 335.62L199.709 343.036L212.281 334.393L198.635 327.57L194.61 335.62ZM184.916 331.428L181.805 339.873L184.916 331.428ZM169.982 331.166L165.352 323.449L165.168 323.559L164.99 323.678L169.982 331.166ZM169.458 340.336L176.231 334.409L176.034 334.184L175.822 333.972L169.458 340.336ZM185.178 340.336L182.205 331.841L181.942 331.933L181.685 332.041L185.178 340.336ZM330.496 200.952C330.496 209.875 328.734 217.309 325.494 223.507L341.446 231.845C346.241 222.673 348.496 212.29 348.496 200.952H330.496ZM325.534 223.431C322.011 230.017 317.517 235.724 312.033 240.599L323.991 254.053C331.083 247.749 336.894 240.356 341.406 231.921L325.534 223.431ZM312.033 240.599C306.187 245.795 300.155 250.13 293.94 253.635L302.784 269.313C310.193 265.133 317.261 260.035 323.991 254.053L312.033 240.599ZM294.075 253.56C289.777 255.889 285.058 258.56 279.925 261.57L289.027 277.098C294.024 274.169 298.563 271.601 302.649 269.388L294.075 253.56ZM280.011 261.52C275.562 264.062 270.761 266.306 265.596 268.243L271.916 285.097C277.93 282.842 283.609 280.195 288.941 277.148L280.011 261.52ZM265.596 268.243C261.098 269.93 256.151 270.814 250.678 270.814V288.814C258.13 288.814 265.236 287.602 271.916 285.097L265.596 268.243ZM241.84 278.114C240.233 286.471 237.673 294.293 234.175 301.607L250.413 309.373C254.6 300.618 257.63 291.323 259.516 281.514L241.84 278.114ZM234.209 301.537C230.797 308.515 226.398 314.684 220.996 320.086L233.724 332.814C240.549 325.989 246.105 318.185 250.379 309.443L234.209 301.537ZM220.996 320.086C219.765 321.318 218.154 322.721 216.109 324.294L227.083 338.562C229.58 336.641 231.811 334.726 233.724 332.814L220.996 320.086ZM216.196 324.228C214.514 325.49 212.553 326.732 210.287 327.941L218.757 343.823C221.731 342.237 224.486 340.51 226.996 338.628L216.196 324.228ZM211.565 344.382C215.637 345.799 219.139 346.967 222.056 347.878L227.424 330.698C224.752 329.862 221.442 328.76 217.479 327.382L211.565 344.382ZM221.745 347.775C224.779 348.846 228.412 350.086 232.636 351.494L238.328 334.418C234.168 333.031 230.64 331.826 227.735 330.801L221.745 347.775ZM232.636 351.494C236.934 352.927 240.362 354.443 243.025 355.985L252.043 340.407C248.069 338.106 243.462 336.129 238.328 334.418L232.636 351.494ZM243.025 355.985C246.284 357.872 249.454 359.757 252.535 361.64L261.921 346.28C258.714 344.321 255.421 342.363 252.043 340.407L243.025 355.985ZM252.535 361.64C256.35 363.971 260.512 365.831 264.979 367.252L270.437 350.1C267.218 349.076 264.394 347.792 261.921 346.28L252.535 361.64ZM264.979 367.252C269.994 368.848 275.791 369.51 282.118 369.51V351.51C276.917 351.51 273.108 350.949 270.437 350.1L264.979 367.252ZM282.118 369.51C288.662 369.51 295.096 368.485 301.387 366.455L295.861 349.325C291.323 350.789 286.752 351.51 282.118 351.51V369.51ZM301.061 366.554C307.855 364.643 313.84 361.454 318.717 356.809L306.303 343.775C303.844 346.116 300.572 347.993 296.187 349.226L301.061 366.554ZM318.393 357.103C324.359 351.95 327.274 345.025 327.274 337.192H309.274C309.274 340.188 308.346 341.996 306.627 343.481L318.393 357.103ZM327.274 337.192C327.274 329.836 324.561 322.946 317.939 318.642L308.129 333.734C308.494 333.971 309.274 334.417 309.274 337.192H327.274ZM318.195 318.815C312.922 315.124 306.753 313.52 300.196 313.52V331.52C303.77 331.52 306.159 332.362 307.873 333.561L318.195 318.815ZM300.196 313.52C293.06 313.52 287.305 317.007 283.391 322.599L298.137 332.921C299.114 331.526 299.647 331.52 300.196 331.52V313.52ZM283.519 322.421C280.861 326.028 278.678 329.533 277.252 332.861L293.796 339.951C294.466 338.388 295.777 336.129 298.01 333.099L283.519 322.421ZM277.398 332.537C277.045 333.279 276.745 333.842 276.503 334.255C276.383 334.459 276.286 334.61 276.214 334.717C276.141 334.826 276.104 334.872 276.105 334.87C276.107 334.868 276.122 334.849 276.151 334.817C276.18 334.785 276.227 334.735 276.292 334.672C276.416 334.552 276.646 334.345 276.988 334.113C277.647 333.667 279.061 332.908 281.07 332.908V350.908C286.074 350.908 289.095 347.432 290.096 346.195C291.492 344.471 292.657 342.361 293.65 340.275L277.398 332.537ZM281.07 332.908C282.412 332.908 283.961 333.298 285.355 334.285C286.665 335.213 287.335 336.311 287.641 336.962C288.144 338.031 287.974 338.518 287.974 337.454H269.974C269.974 339.359 270.153 342.073 271.355 344.627C272.011 346.021 273.117 347.675 274.951 348.974C276.869 350.332 279.03 350.908 281.07 350.908V332.908ZM287.974 337.454C287.974 336.862 288.076 335.927 288.443 334.582L271.077 329.846C270.396 332.344 269.974 334.902 269.974 337.454H287.974ZM288.218 335.29C288.637 334.139 289.224 333.003 290.015 331.873L275.269 321.551C273.614 323.915 272.281 326.446 271.302 329.138L288.218 335.29ZM290.058 331.811C291.381 329.886 292.85 328.452 294.446 327.388L284.462 312.412C280.818 314.841 277.745 317.948 275.226 321.613L290.058 331.811ZM294.446 327.388C295.068 326.974 296.683 326.28 300.196 326.28V308.28C294.626 308.28 289.08 309.333 284.462 312.412L294.446 327.388ZM300.196 326.28C304.833 326.28 308.878 327.558 312.589 330.155L322.911 315.409C316.142 310.67 308.485 308.28 300.196 308.28V326.28ZM312.758 330.27C315.416 332.043 316.61 334.168 316.61 337.716H334.61C334.61 328.339 330.564 320.508 322.742 315.294L312.758 330.27ZM316.61 337.716C316.61 342.008 315.356 345.484 312.869 348.537L326.823 359.907C332.021 353.528 334.61 346 334.61 337.716H316.61ZM312.742 348.697C310.067 352.136 306.499 354.92 301.803 356.992L309.069 373.46C316.25 370.292 322.289 365.74 326.95 359.747L312.742 348.697ZM301.712 357.033C297.142 359.11 292.301 360.156 287.096 360.156V378.156C294.816 378.156 302.202 376.582 309.16 373.419L301.712 357.033ZM287.096 360.156C279.651 360.156 274.332 359.481 270.789 358.431L265.675 375.689C271.564 377.434 278.821 378.156 287.096 378.156V360.156ZM270.491 358.348C266.361 357.277 262.501 355.835 258.895 354.032L250.845 370.132C255.623 372.521 260.671 374.397 265.973 375.772L270.491 358.348ZM258.753 353.963C254.226 351.798 248.732 349.731 242.372 347.732L236.976 364.904C242.843 366.748 247.479 368.524 250.987 370.201L258.753 353.963ZM242.417 347.746C238.731 346.567 234.091 344.55 228.427 341.552L220.005 357.46C226.218 360.75 231.883 363.275 236.931 364.89L242.417 347.746ZM228.241 341.456C222.129 338.4 216.615 335.912 211.727 334.032L205.265 350.832C209.459 352.445 214.425 354.673 220.191 357.556L228.241 341.456ZM213.488 334.944C212.591 334.345 211.644 333.813 210.687 333.334L202.637 349.434C203.078 349.654 203.353 349.82 203.504 349.92L213.488 334.944ZM209.508 332.846C209.525 332.851 209.477 332.836 209.356 332.784C209.237 332.733 209.071 332.657 208.853 332.548L200.803 348.648C201.74 349.116 202.761 349.57 203.816 349.922L209.508 332.846ZM201.283 332.326C196.918 334.196 192.29 335.69 187.388 336.797L191.352 354.355C197.279 353.017 202.957 351.192 208.373 348.87L201.283 332.326ZM187.051 336.88C182.514 338.09 178.141 338.672 173.912 338.672V356.672C179.813 356.672 185.746 355.857 191.689 354.272L187.051 336.88ZM173.912 338.672C174.208 338.672 174.173 338.725 173.707 338.576C173.256 338.432 172.561 338.149 171.597 337.635L163.127 353.517C166.253 355.184 169.992 356.672 173.912 356.672V338.672ZM171.387 337.526C169.963 336.814 168.655 335.835 167.446 334.516L154.178 346.68C156.811 349.553 159.87 351.892 163.337 353.626L171.387 337.526ZM167.726 334.836C167.161 334.158 167.192 333.88 167.192 333.786H149.192C149.192 338.583 150.97 342.846 153.898 346.36L167.726 334.836ZM167.192 333.786C167.192 334.16 167.121 334.28 167.189 334.078C167.256 333.875 167.426 333.461 167.8 332.819L152.252 323.749C150.626 326.536 149.192 329.98 149.192 333.786H167.192ZM167.691 333.001C168.602 331.521 169.613 330.377 170.703 329.486L159.305 315.554C156.552 317.807 154.245 320.506 152.361 323.567L167.691 333.001ZM170.404 329.72C170.936 329.321 171.256 329.174 171.362 329.133C171.449 329.099 171.321 329.162 171.03 329.162V311.162C166.563 311.162 162.7 312.998 159.604 315.32L170.404 329.72ZM171.03 329.162C173.578 329.162 177.257 329.849 182.28 331.733L188.6 314.879C182.444 312.571 176.516 311.162 171.03 311.162V329.162ZM182.364 331.764C187.843 333.756 192.849 335.894 197.397 338.168L205.447 322.068C200.213 319.451 194.565 317.048 188.516 314.848L182.364 331.764ZM207.786 336.482C209.533 334.735 211.192 333.076 212.764 331.504L200.036 318.776C198.464 320.348 196.805 322.007 195.058 323.754L207.786 336.482ZM213.09 331.161C214.562 329.525 216.026 327.98 217.48 326.526L204.752 313.798C203.062 315.488 201.382 317.262 199.71 319.119L213.09 331.161ZM217.48 326.526C223.438 320.568 228.429 313.588 232.488 305.663L216.468 297.457C213.191 303.855 209.274 309.276 204.752 313.798L217.48 326.526ZM232.488 305.663C236.343 298.137 239.73 290.262 242.652 282.043L225.692 276.013C223.025 283.514 219.949 290.66 216.468 297.457L232.488 305.663ZM234.952 270.062C227.382 269.404 219.991 268.171 212.775 266.367L208.409 283.829C216.564 285.868 224.893 287.255 233.392 287.994L234.952 270.062ZM212.96 266.415C205.963 264.507 199.715 261.914 194.167 258.678L185.097 274.226C192.125 278.326 199.851 281.497 208.224 283.781L212.96 266.415ZM194.262 258.735C189.136 255.659 185.108 251.946 182.038 247.619L167.358 258.037C171.973 264.539 177.901 269.909 185.002 274.169L194.262 258.735ZM182.222 247.89C179.655 243.978 178.196 239.116 178.196 232.916H160.196C160.196 242.087 162.405 250.5 167.174 257.766L182.222 247.89ZM178.196 232.916C178.196 226.323 179.857 220.204 183.251 214.407L167.717 205.313C162.727 213.838 160.196 223.09 160.196 232.916H178.196ZM183.218 214.463C186.897 208.282 191.617 203.361 197.419 199.59L187.609 184.498C179.438 189.809 172.804 196.766 167.75 205.257L183.218 214.463ZM197.419 199.59C203.003 195.96 208.82 194.232 215.046 194.232V176.232C205.203 176.232 195.998 179.045 187.609 184.498L197.419 199.59ZM215.046 194.232C224.069 194.232 230.252 195.833 234.325 198.229L243.451 182.715C235.647 178.124 225.935 176.232 215.046 176.232V194.232ZM234.325 198.229C236.393 199.446 238.796 202.318 238.796 210.646H256.796C256.796 199.062 253.261 188.485 243.451 182.715L234.325 198.229ZM238.796 210.646C238.796 213.361 237.969 216.304 235.809 219.607L250.875 229.457C254.654 223.678 256.796 217.363 256.796 210.646H238.796ZM235.762 219.681C233.364 223.427 231.314 225.433 229.807 226.408L239.585 241.52C244.017 238.653 247.731 234.37 250.922 229.383L235.762 219.681ZM230.671 225.914C230.42 226.04 230.388 226.046 230.502 226.001C230.557 225.979 230.772 225.893 231.094 225.802C231.26 225.754 231.522 225.685 231.854 225.625C232.163 225.569 232.703 225.488 233.386 225.488V243.488C234.687 243.488 235.701 243.205 236.039 243.109C236.513 242.973 236.914 242.822 237.187 242.713C237.738 242.493 238.273 242.238 238.721 242.014L230.671 225.914ZM233.386 225.488C234.247 225.488 236.47 225.771 238.307 227.812C239.982 229.674 240.028 231.574 240.028 231.868H222.028C222.028 233.908 222.467 237.119 224.928 239.854C227.551 242.769 230.953 243.488 233.386 243.488V225.488ZM240.028 231.868C240.028 232.334 239.95 233.167 239.514 234.148C239.055 235.18 238.335 236.065 237.476 236.71L226.676 222.31C223.246 224.883 222.028 228.624 222.028 231.868H240.028ZM237.775 236.476C240.631 234.139 243.368 230.833 245.999 227.073L231.253 216.751C228.994 219.978 227.364 221.737 226.377 222.544L237.775 236.476ZM245.826 227.312C249.507 222.404 251.556 216.783 251.556 210.646H233.556C233.556 212.544 232.985 214.433 231.426 216.512L245.826 227.312ZM251.556 210.646C251.556 200.741 248.384 191.214 239.093 186.408L230.823 202.396C231.662 202.83 233.556 204.133 233.556 210.646H251.556ZM239.093 186.408C232.312 182.901 224.105 181.472 215.046 181.472V199.472C222.406 199.472 227.473 200.663 230.823 202.396L239.093 186.408ZM215.046 181.472C205.993 181.472 197.818 184.178 191.111 189.927L202.825 203.593C205.899 200.958 209.776 199.472 215.046 199.472V181.472ZM191.111 189.927C184.942 195.214 180.442 201.959 177.519 209.893L194.409 216.115C196.377 210.774 199.212 206.69 202.825 203.593L191.111 189.927ZM177.546 209.819C174.684 217.384 173.296 225.46 173.296 233.964H191.296C191.296 227.447 192.354 221.549 194.382 216.189L177.546 209.819ZM173.296 233.964C173.296 244.924 176.337 254.677 183.225 262.278L196.563 250.19C193.32 246.612 191.296 241.519 191.296 233.964H173.296ZM183.225 262.278C189.461 269.158 197.469 274.117 206.906 277.33L212.706 260.29C205.724 257.913 200.458 254.488 196.563 250.19L183.225 262.278ZM207.07 277.384C215.94 280.215 225.311 282.081 235.161 283.01L236.851 265.09C228.186 264.272 220.091 262.645 212.542 260.236L207.07 277.384ZM244.501 277.023C245.752 273.448 246.917 269.954 247.994 266.542L230.83 261.122C229.811 264.347 228.705 267.665 227.511 271.077L244.501 277.023ZM247.994 266.542C249.042 263.224 250.09 259.905 251.138 256.586L233.974 251.166C232.926 254.484 231.878 257.803 230.83 261.122L247.994 266.542ZM251.068 256.798C255.151 244.906 258.792 233.008 261.99 221.103L244.606 216.433C241.516 227.934 237.996 239.441 234.044 250.954L251.068 256.798ZM261.966 221.19C265.144 209.817 269.137 199.355 273.924 189.781L257.824 181.731C252.481 192.418 248.09 203.964 244.63 216.346L261.966 221.19ZM273.983 189.66C276.078 185.309 278.504 181.021 281.267 176.795L266.201 166.945C263.026 171.802 260.211 176.771 257.765 181.852L273.983 189.66ZM281.222 176.862C283.8 172.996 286.814 169.864 290.259 167.384L279.741 152.776C274.453 156.584 269.956 161.312 266.246 166.878L281.222 176.862ZM290.123 167.48C292.877 165.573 296.585 164.364 301.768 164.364V146.364C293.676 146.364 286.206 148.299 279.877 152.68L290.123 167.48ZM301.768 164.364C305.2 164.364 308.637 164.598 312.08 165.067L314.512 147.233C310.27 146.654 306.021 146.364 301.768 146.364V164.364ZM312.08 165.067C314.896 165.452 316.316 166.18 316.979 166.69L327.953 152.422C324.075 149.439 319.381 147.896 314.512 147.233L312.08 165.067ZM316.816 166.562C321.025 169.956 324.361 174.344 326.792 179.92L343.292 172.728C339.784 164.68 334.736 157.889 328.116 152.55L316.816 166.562ZM326.827 179.999C329.133 185.154 330.496 192.024 330.496 200.952H348.496C348.496 190.318 346.89 180.768 343.257 172.649L326.827 179.999ZM329.887 203.135C330.826 199.382 331.516 195.873 331.921 192.636L314.06 190.404C313.765 192.756 313.233 195.536 312.425 198.769L329.887 203.135ZM331.836 193.179C332.438 189.967 332.776 186.867 332.776 183.922H314.776C314.776 185.518 314.59 187.483 314.144 189.861L331.836 193.179ZM332.776 183.922C332.776 174.302 328.532 166.261 320.933 160.324L309.851 174.508C313.43 177.304 314.776 180.268 314.776 183.922H332.776ZM321.014 160.388C318.115 158.068 314.65 156.454 310.705 156.095L309.075 174.021C309.076 174.021 309.077 174.021 309.084 174.023C309.091 174.025 309.116 174.032 309.161 174.051C309.249 174.089 309.454 174.191 309.77 174.444L321.014 160.388ZM311.655 156.233C309.048 155.711 305.915 155.534 302.554 155.534V173.534C305.481 173.534 307.239 173.706 308.125 173.883L311.655 156.233ZM302.554 155.534C291.882 155.534 282.303 158.441 275.377 165.623L288.335 178.117C290.841 175.518 295.061 173.534 302.554 173.534V155.534ZM275.373 165.627C270.152 171.05 265.861 177.251 262.494 184.182L278.686 192.046C281.258 186.75 284.478 182.122 288.339 178.113L275.373 165.627ZM262.54 184.089C257.138 194.893 253.059 206.407 250.286 218.607L267.838 222.597C270.305 211.741 273.911 201.597 278.64 192.139L262.54 184.089ZM250.292 218.578C247.545 230.484 245.487 244.911 244.068 261.767L262.004 263.277C263.38 246.946 265.339 233.426 267.832 222.626L250.292 218.578ZM244.067 261.775C243.892 263.871 243.718 265.967 243.543 268.063L261.481 269.557C261.656 267.461 261.83 265.365 262.005 263.269L244.067 261.775ZM243.549 267.995C243.399 269.647 243.173 271.303 242.871 272.964L260.581 276.184C260.977 274.003 261.276 271.816 261.475 269.625L243.549 267.995ZM251.991 283.57C258.834 283.369 265.336 282.154 271.424 279.845L265.04 263.015C260.998 264.548 256.495 265.43 251.461 265.578L251.991 283.57ZM271.673 279.746C277.168 277.472 282.399 274.811 287.359 271.759L277.925 256.429C273.802 258.966 269.427 261.196 264.791 263.114L271.673 279.746ZM287.359 271.759C291.819 269.014 296.002 266.539 299.909 264.331L291.051 248.661C286.923 250.994 282.547 253.585 277.925 256.429L287.359 271.759ZM299.851 264.363C305.852 261.03 310.777 256.436 314.541 250.679L299.475 240.829C297.301 244.155 294.54 246.722 291.109 248.629L299.851 264.363ZM314.496 250.746C318.147 245.27 320.896 239.368 322.725 233.067L305.439 228.049C304.124 232.577 302.157 236.806 299.52 240.762L314.496 250.746ZM322.672 233.242C324.505 227.379 325.984 221.657 327.099 216.079L309.449 212.549C308.468 217.451 307.153 222.558 305.492 227.874L322.672 233.242ZM327.099 216.079C328.134 210.906 329.071 206.565 329.911 203.037L312.401 198.867C311.494 202.675 310.51 207.242 309.449 212.549L327.099 216.079ZM198.635 327.57C195.192 325.849 191.656 324.32 188.027 322.983L181.805 339.873C184.814 340.982 187.74 342.247 190.585 343.67L198.635 327.57ZM188.027 322.983C183.898 321.462 179.696 320.594 175.484 320.594V338.594C177.21 338.594 179.297 338.949 181.805 339.873L188.027 322.983ZM175.484 320.594C171.832 320.594 168.409 321.614 165.352 323.449L174.612 338.883C175.048 338.622 175.293 338.594 175.484 338.594V320.594ZM164.99 323.678C161.494 326.008 158.624 329.878 158.624 335.096H176.624C176.624 335.892 176.402 336.779 175.931 337.565C175.496 338.29 175.041 338.61 174.974 338.654L164.99 323.678ZM158.624 335.096C158.624 338.977 159.704 343.31 163.094 346.7L175.822 333.972C176.233 334.383 176.468 334.825 176.577 335.136C176.672 335.407 176.624 335.44 176.624 335.096H158.624ZM162.685 346.263C165.494 349.473 169.39 351.432 173.912 351.432V333.432C174.276 333.432 174.788 333.514 175.321 333.765C175.84 334.009 176.133 334.297 176.231 334.409L162.685 346.263ZM173.912 351.432C179.109 351.432 184.08 350.564 188.671 348.631L181.685 332.041C179.639 332.903 177.099 333.432 173.912 333.432V351.432ZM188.151 348.831C192.33 347.368 196.2 345.449 199.709 343.036L189.511 328.204C187.431 329.634 185.013 330.858 182.205 331.841L188.151 348.831Z" fill="black" fill-opacity="0.2" mask="url(#path-5-outside-1_2027_3)"/>
</g>
</g>
<defs>
<filter id="filter0_dii_2027_3" x="-33" y="-30" width="572" height="572" filterUnits="userSpaceOnUse" color-interpolation-filters="sRGB">
<feFlood flood-opacity="0" result="BackgroundImageFix"/>
<feColorMatrix in="SourceAlpha" type="matrix" values="0 0 0 0 0 0 0 0 0 0 0 0 0 0 0 0 0 0 127 0" result="hardAlpha"/>
<feMorphology radius="3" operator="dilate" in="SourceAlpha" result="effect1_dropShadow_2027_3"/>
<feOffset/>
<feGaussianBlur stdDeviation="20.5"/>
<feComposite in2="hardAlpha" operator="out"/>
<feColorMatrix type="matrix" values="0 0 0 0 0 0 0 0 0 0 0 0 0 0 0 0 0 0 0.17 0"/>
<feBlend mode="normal" in2="BackgroundImageFix" result="effect1_dropShadow_2027_3"/>
<feBlend mode="normal" in="SourceGraphic" in2="effect1_dropShadow_2027_3" result="shape"/>
<feColorMatrix in="SourceAlpha" type="matrix" values="0 0 0 0 0 0 0 0 0 0 0 0 0 0 0 0 0 0 127 0" result="hardAlpha"/>
<feOffset dy="23"/>
<feGaussianBlur stdDeviation="2.5"/>
<feComposite in2="hardAlpha" operator="arithmetic" k2="-1" k3="1"/>
<feColorMatrix type="matrix" values="0 0 0 0 0.921061 0 0 0 0 0.921061 0 0 0 0 0.921061 0 0 0 0.25 0"/>
<feBlend mode="normal" in2="shape" result="effect2_innerShadow_2027_3"/>
<feColorMatrix in="SourceAlpha" type="matrix" values="0 0 0 0 0 0 0 0 0 0 0 0 0 0 0 0 0 0 127 0" result="hardAlpha"/>
<feOffset/>
<feGaussianBlur stdDeviation="7.5"/>
<feComposite in2="hardAlpha" operator="arithmetic" k2="-1" k3="1"/>
<feColorMatrix type="matrix" values="0 0 0 0 0 0 0 0 0 0 0 0 0 0 0 0 0 0 0.7 0"/>
<feBlend mode="normal" in2="effect2_innerShadow_2027_3" result="effect3_innerShadow_2027_3"/>
</filter>
<filter id="filter1_di_2027_3" x="65" y="69" width="381" height="381" filterUnits="userSpaceOnUse" color-interpolation-filters="sRGB">
<feFlood flood-opacity="0" result="BackgroundImageFix"/>
<feColorMatrix in="SourceAlpha" type="matrix" values="0 0 0 0 0 0 0 0 0 0 0 0 0 0 0 0 0 0 127 0" result="hardAlpha"/>
<feOffset dy="4"/>
<feGaussianBlur stdDeviation="2"/>
<feComposite in2="hardAlpha" operator="out"/>
<feColorMatrix type="matrix" values="0 0 0 0 0.93916 0 0 0 0 0.93916 0 0 0 0 0.93916 0 0 0 1 0"/>
<feBlend mode="normal" in2="BackgroundImageFix" result="effect1_dropShadow_2027_3"/>
<feBlend mode="normal" in="SourceGraphic" in2="effect1_dropShadow_2027_3" result="shape"/>
<feColorMatrix in="SourceAlpha" type="matrix" values="0 0 0 0 0 0 0 0 0 0 0 0 0 0 0 0 0 0 127 0" result="hardAlpha"/>
<feOffset dy="4"/>
<feGaussianBlur stdDeviation="2"/>
<feComposite in2="hardAlpha" operator="arithmetic" k2="-1" k3="1"/>
<feColorMatrix type="matrix" values="0 0 0 0 0 0 0 0 0 0 0 0 0 0 0 0 0 0 0.25 0"/>
<feBlend mode="normal" in2="shape" result="effect2_innerShadow_2027_3"/>
</filter>
<filter id="filter2_di_2027_3" x="87" y="91" width="337" height="337" filterUnits="userSpaceOnUse" color-interpolation-filters="sRGB">
<feFlood flood-opacity="0" result="BackgroundImageFix"/>
<feColorMatrix in="SourceAlpha" type="matrix" values="0 0 0 0 0 0 0 0 0 0 0 0 0 0 0 0 0 0 127 0" result="hardAlpha"/>
<feOffset dy="4"/>
<feGaussianBlur stdDeviation="2"/>
<feComposite in2="hardAlpha" operator="out"/>
<feColorMatrix type="matrix" values="0 0 0 0 0 0 0 0 0 0 0 0 0 0 0 0 0 0 0.25 0"/>
<feBlend mode="normal" in2="BackgroundImageFix" result="effect1_dropShadow_2027_3"/>
<feBlend mode="normal" in="SourceGraphic" in2="effect1_dropShadow_2027_3" result="shape"/>
<feColorMatrix in="SourceAlpha" type="matrix" values="0 0 0 0 0 0 0 0 0 0 0 0 0 0 0 0 0 0 127 0" result="hardAlpha"/>
<feOffset dy="4"/>
<feGaussianBlur stdDeviation="2"/>
<feComposite in2="hardAlpha" operator="arithmetic" k2="-1" k3="1"/>
<feColorMatrix type="matrix" values="0 0 0 0 1 0 0 0 0 1 0 0 0 0 1 0 0 0 0.65 0"/>
<feBlend mode="normal" in2="shape" result="effect2_innerShadow_2027_3"/>
</filter>
<filter id="filter3_ddi_2027_3" x="44" y="44" width="427" height="427" filterUnits="userSpaceOnUse" color-interpolation-filters="sRGB">
<feFlood flood-opacity="0" result="BackgroundImageFix"/>
<feColorMatrix in="SourceAlpha" type="matrix" values="0 0 0 0 0 0 0 0 0 0 0 0 0 0 0 0 0 0 127 0" result="hardAlpha"/>
<feOffset dy="4"/>
<feGaussianBlur stdDeviation="2"/>
<feComposite in2="hardAlpha" operator="out"/>
<feColorMatrix type="matrix" values="0 0 0 0 1 0 0 0 0 1 0 0 0 0 1 0 0 0 0.65 0"/>
<feBlend mode="normal" in2="BackgroundImageFix" result="effect1_dropShadow_2027_3"/>
<feColorMatrix in="SourceAlpha" type="matrix" values="0 0 0 0 0 0 0 0 0 0 0 0 0 0 0 0 0 0 127 0" result="hardAlpha"/>
<feOffset/>
<feGaussianBlur stdDeviation="37"/>
<feComposite in2="hardAlpha" operator="out"/>
<feColorMatrix type="matrix" values="0 0 0 0 0 0 0 0 0 0 0 0 0 0 0 0 0 0 0.2 0"/>
<feBlend mode="normal" in2="effect1_dropShadow_2027_3" result="effect2_dropShadow_2027_3"/>
<feBlend mode="normal" in="SourceGraphic" in2="effect2_dropShadow_2027_3" result="shape"/>
<feColorMatrix in="SourceAlpha" type="matrix" values="0 0 0 0 0 0 0 0 0 0 0 0 0 0 0 0 0 0 127 0" result="hardAlpha"/>
<feOffset dy="4"/>
<feGaussianBlur stdDeviation="2"/>
<feComposite in2="hardAlpha" operator="arithmetic" k2="-1" k3="1"/>
<feColorMatrix type="matrix" values="0 0 0 0 0 0 0 0 0 0 0 0 0 0 0 0 0 0 0.25 0"/>
<feBlend mode="normal" in2="shape" result="effect3_innerShadow_2027_3"/>
</filter>
<filter id="filter4_d_2027_3" x="154.192" y="155.364" width="189.304" height="221.792" filterUnits="userSpaceOnUse" color-interpolation-filters="sRGB">
<feFlood flood-opacity="0" result="BackgroundImageFix"/>
<feColorMatrix in="SourceAlpha" type="matrix" values="0 0 0 0 0 0 0 0 0 0 0 0 0 0 0 0 0 0 127 0" result="hardAlpha"/>
<feOffset dy="4"/>
<feGaussianBlur stdDeviation="2"/>
<feComposite in2="hardAlpha" operator="out"/>
<feColorMatrix type="matrix" values="0 0 0 0 0 0 0 0 0 0 0 0 0 0 0 0 0 0 0.25 0"/>
<feBlend mode="normal" in2="BackgroundImageFix" result="effect1_dropShadow_2027_3"/>
<feBlend mode="normal" in="SourceGraphic" in2="effect1_dropShadow_2027_3" result="shape"/>
</filter>
<clipPath id="clip0_2027_3">
<rect width="512" height="512" fill="white"/>
</clipPath>
</defs>
</svg>
